PowerlineExtraSymbols.ufo
<glyph name="uni2630" format="2">
  <advance width="1200"/>
  <unicode hex="2630"/>
  <note>
uni2630
</note>
  <outline>
    <contour>
      <point x="120" y="356" type="line"/>
      <point x="120" y="151" type="line"/>
      <point x="1080" y="151" type="line"/>
      <point x="1080" y="356" type="line"/>
    </contour>
    <contour>
      <point x="120" y="765" type="line"/>
      <point x="120" y="561" type="line"/>
      <point x="1080" y="561" type="line"/>
      <point x="1080" y="765" type="line"/>
    </contour>
    <contour>
      <point x="120" y="1175" type="line"/>
      <point x="120" y="970" type="line"/>
      <point x="1080" y="970" type="line"/>
      <point x="1080" y="1175" type="line"/>
    </contour>
  </outline>
</glyph>
<glyph name="uniE0A3" format="2">
  <advance width="1200"/>
  <unicode hex="E0A3"/>
  <note>
uniE0A3
</note>
  <outline>
    <contour>
      <point x="895" y="633" type="line"/>
      <point x="755" y="633" type="line"/>
      <point x="755" y="514" type="line"/>
      <point x="774" y="192" type="line"/>
      <point x="556" y="633" type="line"/>
      <point x="411" y="633" type="line"/>
      <point x="411" y="-43" type="line"/>
      <point x="549" y="-43" type="line"/>
      <point x="549" y="103" type="line"/>
      <point x="533" y="396" type="line"/>
      <point x="748" y="-43" type="line"/>
      <point x="895" y="-43" type="line"/>
    </contour>
    <contour>
      <point x="738" y="694" type="line"/>
      <point x="738" y="793" type="line"/>
      <point x="439" y="793" type="line"/>
      <point x="437" y="1265" type="line"/>
      <point x="738" y="1265" type="line"/>
      <point x="738" y="1377" type="line"/>
      <point x="462" y="1377" type="line"/>
      <point x="305" y="1377" type="line"/>
      <point x="305" y="694" type="line"/>
    </contour>
  </outline>
</glyph>
<glyph name="uniE0B3" format="2">
  <advance width="1200"/>
  <unicode hex="E0B3"/>
  <note>
uniE0B3
</note>
  <outline>
    <contour>
      <point x="1391" y="-266" type="line"/>
      <point x="71" y="972" type="line"/>
      <point x="1391" y="2210" type="line"/>
      <point x="1255" y="2325" type="line"/>
      <point x="-191" y="972" type="line"/>
      <point x="1255" y="-381" type="line"/>
    </contour>
  </outline>
</glyph>
<glyph name="uniE0B4" format="2">
  <advance width="1200"/>
  <unicode hex="E0B4"/>
  <note>
uniE0B4
</note>
  <outline>
    <contour>
      <point x="-70" y="2267" type="curve"/>
      <point x="-70" y="-439" type="line"/>
      <point x="150" y="-439"/>
      <point x="372" y="-373"/>
      <point x="598" y="-241" type="curve" smooth="yes"/>
      <point x="1046" y="13"/>
      <point x="1270" y="398"/>
      <point x="1270" y="914" type="curve" smooth="yes"/>
      <point x="1270" y="1429"/>
      <point x="1046" y="1816"/>
      <point x="598" y="2074" type="curve" smooth="yes"/>
      <point x="372" y="2202"/>
      <point x="150" y="2267"/>
    </contour>
  </outline>
</glyph>
<glyph name="uniE0B5" format="2">
  <advance width="1200"/>
  <unicode hex="E0B5"/>
  <note>
uniE0B5
</note>
  <outline>
    <contour>
      <point x="349" y="-498" type="line"/>
      <point x="795" y="-245"/>
      <point x="1018" y="339"/>
      <point x="1018" y="852" type="curve" smooth="yes"/>
      <point x="1018" y="1365"/>
      <point x="795" y="1951"/>
      <point x="349" y="2208" type="curve"/>
      <point x="182" y="2208" type="line"/>
      <point x="628" y="1951"/>
      <point x="851" y="1365"/>
      <point x="851" y="852" type="curve" smooth="yes"/>
      <point x="851" y="339"/>
      <point x="625" y="-240"/>
      <point x="182" y="-498" type="curve"/>
    </contour>
  </outline>
</glyph>
<glyph name="uniE0B9" format="2">
  <advance width="1200"/>
  <unicode hex="E0B9"/>
  <note>
uniE0B9
</note>
  <outline>
    <contour>
      <point x="-688" y="2280" type="line"/>
      <point x="-820" y="2280" type="line"/>
      <point x="1888" y="-426" type="line"/>
      <point x="2020" y="-426" type="line"/>
    </contour>
  </outline>
</glyph>
<glyph name="uniE0BA" format="2">
  <advance width="1200"/>
  <unicode hex="E0BA"/>
  <note>
uniE0BA
</note>
  <outline>
    <contour>
      <point x="1954" y="2280" type="line"/>
      <point x="-754" y="-426" type="line"/>
      <point x="1954" y="-426" type="line"/>
    </contour>
  </outline>
</glyph>
<glyph name="uniE0BD" format="2">
  <advance width="1200"/>
  <unicode hex="E0BD"/>
  <note>
uniE0BD
</note>
  <outline>
    <contour>
      <point x="-688" y="-426" type="line"/>
      <point x="2020" y="2280" type="line"/>
      <point x="1888" y="2280" type="line"/>
      <point x="-820" y="-426" type="line"/>
    </contour>
  </outline>
</glyph>
<glyph name="uniE0BE" format="2">
  <advance width="1200"/>
  <unicode hex="E0BE"/>
  <note>
uniE0BE
</note>
  <outline>
    <contour>
      <point x="1954" y="-426" type="line"/>
      <point x="1954" y="2280" type="line"/>
      <point x="-754" y="2280" type="line"/>
    </contour>
  </outline>
</glyph>
<glyph name="uniE0BF" format="2">
  <advance width="1200"/>
  <unicode hex="E0BF"/>
  <note>
uniE0BF
</note>
  <outline>
    <contour>
      <point x="1888" y="-426" type="line"/>
      <point x="-820" y="2280" type="line"/>
      <point x="-688" y="2280" type="line"/>
      <point x="2020" y="-426" type="line"/>
    </contour>
  </outline>
</glyph>
<glyph name="uniE0C0" format="2">
  <advance width="1200"/>
  <unicode hex="E0C0"/>
  <note>
uniE0C0
</note>
  <outline>
    <contour>
      <point x="1629" y="662" type="curve" smooth="yes"/>
      <point x="1629" y="662" type="line" smooth="yes"/>
      <point x="1411" y="611"/>
      <point x="1136" y="560"/>
      <point x="1047" y="586" type="curve" smooth="yes"/>
      <point x="1001" y="599"/>
      <point x="914" y="612"/>
      <point x="830" y="661" type="curve" smooth="yes"/>
      <point x="696" y="738"/>
      <point x="559" y="852"/>
      <point x="487" y="840" type="curve" smooth="yes"/>
      <point x="449" y="834" type="line"/>
      <point x="475" y="862" type="line" smooth="yes"/>
      <point x="625" y="1022"/>
      <point x="762" y="1000"/>
      <point x="949" y="1010" type="curve" smooth="yes"/>
      <point x="1081" y="1017"/>
      <point x="1179" y="1055"/>
      <point x="1290" y="1107" type="curve"/>
      <point x="1235" y="1097"/>
      <point x="1170" y="1093"/>
      <point x="1110" y="1105" type="curve" smooth="yes"/>
      <point x="1020" y="1124"/>
      <point x="869" y="1128"/>
      <point x="787" y="1200" type="curve" smooth="yes"/>
      <point x="769" y="1217" type="line"/>
      <point x="905" y="1252"/>
      <point x="978" y="1308"/>
      <point x="1093" y="1386" type="curve" smooth="yes"/>
      <point x="1477" y="1642"/>
      <point x="1930" y="1275"/>
      <point x="2277" y="1579" type="curve"/>
      <point x="2060" y="1466"/>
      <point x="1865" y="1547"/>
      <point x="1639" y="1665" type="curve" smooth="yes"/>
      <point x="1404" y="1787"/>
      <point x="1161" y="1828"/>
      <point x="909" y="1752" type="curve" smooth="yes"/>
      <point x="707" y="1691"/>
      <point x="523" y="1500"/>
      <point x="289" y="1544" type="curve" smooth="yes"/>
      <point x="154" y="1569"/>
      <point x="75" y="1652"/>
      <point x="91" y="1741" type="curve" smooth="yes"/>
      <point x="102" y="1799"/>
      <point x="154" y="1852"/>
      <point x="246" y="1885" type="curve" smooth="yes"/>
      <point x="415" y="1947"/>
      <point x="537" y="1970"/>
      <point x="660" y="2084" type="curve"/>
      <point x="526" y="2007"/>
      <point x="404" y="1965"/>
      <point x="238" y="2039" type="curve" smooth="yes"/>
      <point x="64" y="2117"/>
      <point x="-55" y="2085"/>
      <point x="-217" y="1972" type="curve" smooth="yes"/>
      <point x="-303" y="1913"/>
      <point x="-586" y="1687"/>
      <point x="-705" y="1845" type="curve" smooth="yes"/>
      <point x="-732" y="1881"/>
      <point x="-709" y="1915"/>
      <point x="-678" y="1937" type="curve" smooth="yes"/>
      <point x="-617" y="1982"/>
      <point x="-504" y="2018"/>
      <point x="-474" y="2053" type="curve" smooth="yes"/>
      <point x="-374" y="2170"/>
      <point x="-329" y="2253"/>
      <point x="-180" y="2248" type="curve"/>
      <point x="-299" y="2307"/>
      <point x="-423" y="2295"/>
      <point x="-547" y="2217" type="curve" smooth="yes"/>
      <point x="-675" y="2137"/>
      <point x="-832" y="2055"/>
      <point x="-959" y="2187" type="curve" smooth="yes"/>
      <point x="-1017" y="2254"/>
      <point x="-1011" y="2265"/>
      <point x="-1076" y="2268" type="curve"/>
      <point x="-1080" y="2073"/>
      <point x="-1068" y="1860"/>
      <point x="-1068" y="1697" type="curve" smooth="yes"/>
      <point x="-1068" y="1365"/>
      <point x="-1071" y="-169"/>
      <point x="-1075" y="-419" type="curve"/>
      <point x="-902" y="-451"/>
      <point x="-702" y="-143"/>
      <point x="-522" y="-186" type="curve" smooth="yes"/>
      <point x="-360" y="-225"/>
      <point x="-206" y="-141"/>
      <point x="-39" y="-113" type="curve"/>
      <point x="-137" y="-90"/>
      <point x="-240" y="-89"/>
      <point x="-329" y="-40" type="curve" smooth="yes"/>
      <point x="-449" y="26"/>
      <point x="-525" y="40"/>
      <point x="-651" y="-28" type="curve"/>
      <point x="-652" y="-7" type="line" smooth="yes"/>
      <point x="-659" y="120"/>
      <point x="-542" y="224"/>
      <point x="-449" y="259" type="curve" smooth="yes"/>
      <point x="-242" y="338"/>
      <point x="-24" y="135"/>
      <point x="164" y="132" type="curve" smooth="yes"/>
      <point x="310" y="130"/>
      <point x="522" y="156"/>
      <point x="668" y="241" type="curve"/>
      <point x="575" y="214"/>
      <point x="459" y="198"/>
      <point x="365" y="214" type="curve" smooth="yes"/>
      <point x="213" y="240"/>
      <point x="193" y="342"/>
      <point x="98" y="419" type="curve" smooth="yes"/>
      <point x="79" y="435" type="line"/>
      <point x="193" y="471"/>
      <point x="208" y="496"/>
      <point x="295" y="567" type="curve" smooth="yes"/>
      <point x="375" y="631"/>
      <point x="584" y="499"/>
      <point x="752" y="441" type="curve" smooth="yes"/>
      <point x="859" y="405"/>
      <point x="954" y="425"/>
      <point x="1009" y="425" type="curve" smooth="yes"/>
      <point x="1122" y="426"/>
      <point x="1405" y="561"/>
    </contour>
  </outline>
</glyph>
<glyph name="uniE0C2" format="2">
  <advance width="1200"/>
  <unicode hex="E0C2"/>
  <note>
uniE0C2
</note>
  <outline>
    <contour>
      <point x="-429" y="662" type="line" smooth="yes"/>
      <point x="-205" y="561"/>
      <point x="78" y="426"/>
      <point x="191" y="425" type="curve" smooth="yes"/>
      <point x="246" y="425"/>
      <point x="341" y="405"/>
      <point x="448" y="441" type="curve" smooth="yes"/>
      <point x="616" y="499"/>
      <point x="825" y="631"/>
      <point x="905" y="567" type="curve" smooth="yes"/>
      <point x="992" y="496"/>
      <point x="1007" y="471"/>
      <point x="1121" y="435" type="curve"/>
      <point x="1102" y="419" type="line" smooth="yes"/>
      <point x="1007" y="342"/>
      <point x="987" y="240"/>
      <point x="835" y="214" type="curve" smooth="yes"/>
      <point x="741" y="198"/>
      <point x="625" y="214"/>
      <point x="532" y="241" type="curve"/>
      <point x="678" y="156"/>
      <point x="890" y="130"/>
      <point x="1036" y="132" type="curve" smooth="yes"/>
      <point x="1224" y="135"/>
      <point x="1442" y="338"/>
      <point x="1649" y="259" type="curve" smooth="yes"/>
      <point x="1742" y="224"/>
      <point x="1859" y="120"/>
      <point x="1852" y="-7" type="curve" smooth="yes"/>
      <point x="1851" y="-28" type="line"/>
      <point x="1725" y="40"/>
      <point x="1649" y="26"/>
      <point x="1529" y="-40" type="curve" smooth="yes"/>
      <point x="1440" y="-89"/>
      <point x="1337" y="-90"/>
      <point x="1239" y="-113" type="curve"/>
      <point x="1406" y="-141"/>
      <point x="1560" y="-225"/>
      <point x="1722" y="-186" type="curve" smooth="yes"/>
      <point x="1902" y="-143"/>
      <point x="2102" y="-451"/>
      <point x="2275" y="-419" type="curve"/>
      <point x="2271" y="-169"/>
      <point x="2268" y="1365"/>
      <point x="2268" y="1697" type="curve" smooth="yes"/>
      <point x="2268" y="1860"/>
      <point x="2280" y="2073"/>
      <point x="2276" y="2268" type="curve"/>
      <point x="2211" y="2265"/>
      <point x="2217" y="2254"/>
      <point x="2159" y="2187" type="curve" smooth="yes"/>
      <point x="2032" y="2055"/>
      <point x="1875" y="2137"/>
      <point x="1747" y="2217" type="curve" smooth="yes"/>
      <point x="1623" y="2295"/>
      <point x="1499" y="2307"/>
      <point x="1380" y="2248" type="curve"/>
      <point x="1529" y="2253"/>
      <point x="1574" y="2170"/>
      <point x="1674" y="2053" type="curve" smooth="yes"/>
      <point x="1704" y="2018"/>
      <point x="1817" y="1982"/>
      <point x="1878" y="1937" type="curve" smooth="yes"/>
      <point x="1909" y="1915"/>
      <point x="1932" y="1881"/>
      <point x="1905" y="1845" type="curve" smooth="yes"/>
      <point x="1786" y="1687"/>
      <point x="1503" y="1913"/>
      <point x="1417" y="1972" type="curve" smooth="yes"/>
      <point x="1255" y="2085"/>
      <point x="1136" y="2117"/>
      <point x="962" y="2039" type="curve" smooth="yes"/>
      <point x="796" y="1965"/>
      <point x="674" y="2007"/>
      <point x="540" y="2084" type="curve"/>
      <point x="663" y="1970"/>
      <point x="785" y="1947"/>
      <point x="954" y="1885" type="curve" smooth="yes"/>
      <point x="1046" y="1852"/>
      <point x="1098" y="1799"/>
      <point x="1109" y="1741" type="curve" smooth="yes"/>
      <point x="1125" y="1652"/>
      <point x="1046" y="1569"/>
      <point x="911" y="1544" type="curve" smooth="yes"/>
      <point x="677" y="1500"/>
      <point x="493" y="1691"/>
      <point x="291" y="1752" type="curve" smooth="yes"/>
      <point x="39" y="1828"/>
      <point x="-204" y="1787"/>
      <point x="-439" y="1665" type="curve" smooth="yes"/>
      <point x="-665" y="1547"/>
      <point x="-860" y="1466"/>
      <point x="-1077" y="1579" type="curve"/>
      <point x="-730" y="1275"/>
      <point x="-277" y="1642"/>
      <point x="107" y="1386" type="curve" smooth="yes"/>
      <point x="222" y="1308"/>
      <point x="295" y="1252"/>
      <point x="431" y="1217" type="curve"/>
      <point x="413" y="1200" type="line" smooth="yes"/>
      <point x="331" y="1128"/>
      <point x="180" y="1124"/>
      <point x="90" y="1105" type="curve" smooth="yes"/>
      <point x="30" y="1093"/>
      <point x="-35" y="1097"/>
      <point x="-90" y="1107" type="curve"/>
      <point x="21" y="1055"/>
      <point x="119" y="1017"/>
      <point x="251" y="1010" type="curve" smooth="yes"/>
      <point x="438" y="1000"/>
      <point x="575" y="1022"/>
      <point x="725" y="862" type="curve" smooth="yes"/>
      <point x="751" y="834" type="line"/>
      <point x="713" y="840" type="line" smooth="yes"/>
      <point x="641" y="852"/>
      <point x="504" y="738"/>
      <point x="370" y="661" type="curve" smooth="yes"/>
      <point x="286" y="612"/>
      <point x="199" y="599"/>
      <point x="153" y="586" type="curve" smooth="yes"/>
      <point x="64" y="560"/>
      <point x="-211" y="611"/>
      <point x="-429" y="662" type="curve" smooth="yes"/>
    </contour>
  </outline>
</glyph>
<glyph name="uniE0C3" format="2">
  <advance width="1200"/>
  <unicode hex="E0C3"/>
  <note>
uniE0C3
</note>
  <outline>
    <contour>
      <point x="2234" y="2172" type="curve" smooth="yes"/>
      <point x="2207" y="2205"/>
      <point x="2168" y="2233"/>
      <point x="2149" y="2232" type="curve" smooth="yes"/>
      <point x="2082" y="2229"/>
      <point x="2082" y="2213"/>
      <point x="2029" y="2152" type="curve" smooth="yes"/>
      <point x="1913" y="2030"/>
      <point x="1783" y="2105"/>
      <point x="1677" y="2171" type="curve" smooth="yes"/>
      <point x="1527" y="2265"/>
      <point x="1403" y="2269"/>
      <point x="1288" y="2212" type="curve"/>
      <point x="1393" y="2091" type="line"/>
      <point x="1397" y="2091"/>
      <point x="1401" y="2091"/>
      <point x="1405" y="2091" type="curve" smooth="yes"/>
      <point x="1515" y="2091"/>
      <point x="1491" y="2079"/>
      <point x="1591" y="1961" type="curve" smooth="yes"/>
      <point x="1671" y="1868"/>
      <point x="1761" y="1848"/>
      <point x="1791" y="1833" type="curve"/>
      <point x="1789" y="1830"/>
      <point x="1788" y="1828"/>
      <point x="1786" y="1824" type="curve" smooth="yes"/>
      <point x="1682" y="1686"/>
      <point x="1456" y="1873"/>
      <point x="1369" y="1933" type="curve" smooth="yes"/>
      <point x="1185" y="2061"/>
      <point x="1057" y="2088"/>
      <point x="890" y="2013" type="curve" smooth="yes"/>
      <point x="738" y="1944"/>
      <point x="636" y="1982"/>
      <point x="530" y="2042" type="curve" smooth="yes"/>
      <point x="527" y="2044"/>
      <point x="524" y="2045"/>
      <point x="521" y="2047" type="curve"/>
      <point x="521" y="2047"/>
      <point x="426" y="2066"/>
      <point x="529" y="1970" type="curve" smooth="yes"/>
      <point x="692" y="1819"/>
      <point x="826" y="1801"/>
      <point x="973" y="1748" type="curve" smooth="yes"/>
      <point x="995" y="1740"/>
      <point x="1012" y="1730"/>
      <point x="1020" y="1725" type="curve"/>
      <point x="1022" y="1722"/>
      <point x="1023" y="1717"/>
      <point x="1024" y="1712" type="curve" smooth="yes"/>
      <point x="1036" y="1647"/>
      <point x="969" y="1564"/>
      <point x="844" y="1541" type="curve" smooth="yes"/>
      <point x="630" y="1501"/>
      <point x="490" y="1670"/>
      <point x="265" y="1738" type="curve" smooth="yes"/>
      <point x="12" y="1815"/>
      <point x="-222" y="1772"/>
      <point x="-448" y="1655" type="curve" smooth="yes"/>
      <point x="-664" y="1542"/>
      <point x="-855" y="1478"/>
      <point x="-1026" y="1568" type="curve"/>
      <point x="-1026" y="1568"/>
      <point x="-1112" y="1575"/>
      <point x="-1008" y="1484" type="curve" smooth="yes"/>
      <point x="-617" y="1140"/>
      <point x="-138" y="1470"/>
      <point x="142" y="1283" type="curve" smooth="yes"/>
      <point x="197" y="1246"/>
      <point x="249" y="1209"/>
      <point x="308" y="1176" type="curve"/>
      <point x="231" y="1142"/>
      <point x="130" y="1137"/>
      <point x="60" y="1123" type="curve" smooth="yes"/>
      <point x="9" y="1112"/>
      <point x="-47" y="1115"/>
      <point x="-94" y="1122" type="curve" smooth="yes"/>
      <point x="-97" y="1123"/>
      <point x="-100" y="1123"/>
      <point x="-102" y="1124" type="curve"/>
      <point x="-102" y="1124"/>
      <point x="-80" y="1031"/>
      <point x="-29" y="1007" type="curve" smooth="yes"/>
      <point x="80" y="956"/>
      <point x="184" y="916"/>
      <point x="314" y="909" type="curve" smooth="yes"/>
      <point x="444" y="902"/>
      <point x="550" y="905"/>
      <point x="625" y="868" type="curve"/>
      <point x="545" y="851"/>
      <point x="435" y="761"/>
      <point x="324" y="697" type="curve" smooth="yes"/>
      <point x="245" y="651"/>
      <point x="165" y="640"/>
      <point x="119" y="627" type="curve" smooth="yes"/>
      <point x="43" y="605"/>
      <point x="-218" y="651"/>
      <point x="-424" y="699" type="curve"/>
      <point x="-424" y="699"/>
      <point x="-351" y="582"/>
      <point x="-351" y="582" type="curve"/>
      <point x="-349" y="581"/>
      <point x="-346" y="580"/>
      <point x="-343" y="578" type="curve" smooth="yes"/>
      <point x="-132" y="483"/>
      <point x="138" y="352"/>
      <point x="258" y="351" type="curve" smooth="yes"/>
      <point x="305" y="351"/>
      <point x="403" y="331"/>
      <point x="509" y="368" type="curve" smooth="yes"/>
      <point x="651" y="417"/>
      <point x="833" y="516"/>
      <point x="902" y="501" type="curve"/>
      <point x="929" y="479"/>
      <point x="952" y="458"/>
      <point x="987" y="433" type="curve"/>
      <point x="920" y="363"/>
      <point x="891" y="292"/>
      <point x="772" y="272" type="curve" smooth="yes"/>
      <point x="686" y="257"/>
      <point x="578" y="272"/>
      <point x="494" y="296" type="curve"/>
      <point x="494" y="296"/>
      <point x="488" y="225"/>
      <point x="555" y="185" type="curve" smooth="yes"/>
      <point x="561" y="182"/>
      <point x="567" y="178"/>
      <point x="573" y="175" type="curve" smooth="yes"/>
      <point x="736" y="88"/>
      <point x="928" y="70"/>
      <point x="1065" y="72" type="curve" smooth="yes"/>
      <point x="1255" y="74"/>
      <point x="1470" y="259"/>
      <point x="1635" y="196" type="curve" smooth="yes"/>
      <point x="1657" y="188"/>
      <point x="1678" y="175"/>
      <point x="1689" y="166" type="curve" smooth="yes"/>
      <point x="1698" y="159"/>
      <point x="1737" y="127"/>
      <point x="1734" y="51" type="curve"/>
      <point x="1608" y="109"/>
      <point x="1535" y="86"/>
      <point x="1430" y="28" type="curve" smooth="yes"/>
      <point x="1348" y="-17"/>
      <point x="1252" y="-18"/>
      <point x="1157" y="-41" type="curve"/>
      <point x="1254" y="-162" type="line"/>
      <point x="1258" y="-163"/>
      <point x="1262" y="-163"/>
      <point x="1265" y="-164" type="curve" smooth="yes"/>
      <point x="1410" y="-191"/>
      <point x="1565" y="-269"/>
      <point x="1723" y="-232" type="curve" smooth="yes"/>
      <point x="1866" y="-197"/>
      <point x="2051" y="-491"/>
      <point x="2250" y="-453" type="curve" smooth="yes"/>
      <point x="2268" y="-450"/>
      <point x="2259" y="-420"/>
      <point x="2230" y="-386" type="curve" smooth="yes"/>
      <point x="2201" y="-353"/>
      <point x="2163" y="-328"/>
      <point x="2146" y="-332" type="curve" smooth="yes"/>
      <point x="2014" y="-357"/>
      <point x="1817" y="-62"/>
      <point x="1617" y="-110" type="curve" smooth="yes"/>
      <point x="1572" y="-121"/>
      <point x="1528" y="-121"/>
      <point x="1485" y="-116" type="curve"/>
      <point x="1503" y="-110"/>
      <point x="1523" y="-101"/>
      <point x="1542" y="-91" type="curve" smooth="yes"/>
      <point x="1657" y="-27"/>
      <point x="1723" y="-22"/>
      <point x="1818" y="-73" type="curve" smooth="yes"/>
      <point x="1839" y="-84"/>
      <point x="1854" y="-83"/>
      <point x="1855" y="-70" type="curve" smooth="yes"/>
      <point x="1856" y="-50" type="line" smooth="yes"/>
      <point x="1860" y="36"/>
      <point x="1803" y="146"/>
      <point x="1693" y="236" type="curve" smooth="yes"/>
      <point x="1646" y="275"/>
      <point x="1602" y="299"/>
      <point x="1565" y="313" type="curve" smooth="yes"/>
      <point x="1345" y="396"/>
      <point x="1154" y="212"/>
      <point x="989" y="196" type="curve"/>
      <point x="1048" y="239"/>
      <point x="1076" y="300"/>
      <point x="1136" y="348" type="curve" smooth="yes"/>
      <point x="1154" y="363" type="line" smooth="yes"/>
      <point x="1189" y="391"/>
      <point x="1059" y="481"/>
      <point x="1059" y="481" type="curve"/>
      <point x="957" y="513"/>
      <point x="988" y="506"/>
      <point x="891" y="584" type="curve" smooth="yes"/>
      <point x="875" y="597"/>
      <point x="861" y="605"/>
      <point x="850" y="610" type="curve" smooth="yes"/>
      <point x="718" y="675"/>
      <point x="549" y="540"/>
      <point x="401" y="489" type="curve" smooth="yes"/>
      <point x="301" y="454"/>
      <point x="217" y="474"/>
      <point x="160" y="474" type="curve" smooth="yes"/>
      <point x="130" y="474"/>
      <point x="79" y="487"/>
      <point x="15" y="510" type="curve"/>
      <point x="106" y="498"/>
      <point x="183" y="493"/>
      <point x="227" y="506" type="curve" smooth="yes"/>
      <point x="269" y="518"/>
      <point x="354" y="530"/>
      <point x="436" y="578" type="curve" smooth="yes"/>
      <point x="564" y="652"/>
      <point x="705" y="755"/>
      <point x="752" y="748" type="curve" smooth="yes"/>
      <point x="788" y="742" type="line" smooth="yes"/>
      <point x="852" y="732"/>
      <point x="769" y="816"/>
      <point x="769" y="816" type="curve"/>
      <point x="744" y="842" type="line" smooth="yes"/>
      <point x="575" y="1024"/>
      <point x="443" y="1024"/>
      <point x="325" y="1028" type="curve"/>
      <point x="381" y="1040"/>
      <point x="438" y="1058"/>
      <point x="479" y="1094" type="curve" smooth="yes"/>
      <point x="496" y="1109" type="line" smooth="yes"/>
      <point x="529" y="1138"/>
      <point x="398" y="1228"/>
      <point x="398" y="1228" type="curve"/>
      <point x="276" y="1260"/>
      <point x="231" y="1298"/>
      <point x="116" y="1376" type="curve" smooth="yes"/>
      <point x="-102" y="1521"/>
      <point x="-291" y="1488"/>
      <point x="-475" y="1468" type="curve"/>
      <point x="-430" y="1488"/>
      <point x="-384" y="1511"/>
      <point x="-336" y="1536" type="curve" smooth="yes"/>
      <point x="-114" y="1651"/>
      <point x="117" y="1688"/>
      <point x="343" y="1619" type="curve" smooth="yes"/>
      <point x="504" y="1570"/>
      <point x="715" y="1376"/>
      <point x="948" y="1419" type="curve" smooth="yes"/>
      <point x="1082" y="1444"/>
      <point x="1165" y="1521"/>
      <point x="1145" y="1624" type="curve" smooth="yes"/>
      <point x="1140" y="1653"/>
      <point x="1124" y="1694"/>
      <point x="1079" y="1744" type="curve" smooth="yes"/>
      <point x="1057" y="1770"/>
      <point x="1031" y="1792"/>
      <point x="1008" y="1809" type="curve" smooth="yes"/>
      <point x="973" y="1834"/>
      <point x="942" y="1849"/>
      <point x="908" y="1862" type="curve"/>
      <point x="937" y="1868"/>
      <point x="968" y="1878"/>
      <point x="1000" y="1893" type="curve" smooth="yes"/>
      <point x="1165" y="1967"/>
      <point x="1264" y="1932"/>
      <point x="1390" y="1844" type="curve" smooth="yes"/>
      <point x="1466" y="1791"/>
      <point x="1781" y="1547"/>
      <point x="1903" y="1710" type="curve" smooth="yes"/>
      <point x="1923" y="1737"/>
      <point x="1933" y="1785"/>
      <point x="1849" y="1866" type="curve" smooth="yes"/>
      <point x="1835" y="1879"/>
      <point x="1822" y="1890"/>
      <point x="1811" y="1898" type="curve" smooth="yes"/>
      <point x="1742" y="1948"/>
      <point x="1677" y="1970"/>
      <point x="1641" y="1990" type="curve"/>
      <point x="1610" y="2027"/>
      <point x="1575" y="2075"/>
      <point x="1518" y="2125" type="curve"/>
      <point x="1588" y="2130"/>
      <point x="1656" y="2108"/>
      <point x="1710" y="2074" type="curve" smooth="yes"/>
      <point x="1849" y="1987"/>
      <point x="2020" y="1905"/>
      <point x="2145" y="2036" type="curve"/>
      <point x="2204" y="2103"/>
      <point x="2190" y="2107"/>
      <point x="2248" y="2109" type="curve" smooth="yes"/>
      <point x="2268" y="2110"/>
      <point x="2261" y="2139"/>
    </contour>
  </outline>
</glyph>
<glyph name="uniE0C7" format="2">
  <advance width="1200"/>
  <unicode hex="E0C7"/>
  <note>
uniE0C7
</note>
  <outline>
    <contour>
      <point x="277" y="1914" type="line"/>
      <point x="277" y="2168" type="line"/>
      <point x="23" y="2168" type="line"/>
      <point x="23" y="1914" type="line"/>
    </contour>
    <contour>
      <point x="-2" y="2217" type="curve" smooth="yes"/>
      <point x="301" y="2217" type="line" smooth="yes"/>
      <point x="312" y="2217"/>
      <point x="326" y="2207"/>
      <point x="326" y="2192" type="curve" smooth="yes"/>
      <point x="326" y="1889" type="line" smooth="yes"/>
      <point x="326" y="1879"/>
      <point x="316" y="1865"/>
      <point x="301" y="1865" type="curve" smooth="yes"/>
      <point x="-2" y="1865" type="line" smooth="yes"/>
      <point x="-12" y="1865"/>
      <point x="-26" y="1874"/>
      <point x="-26" y="1889" type="curve" smooth="yes"/>
      <point x="-26" y="2192" type="line" smooth="yes"/>
      <point x="-26" y="2203"/>
      <point x="-16" y="2217"/>
    </contour>
    <contour>
      <point x="277" y="1914" type="line"/>
      <point x="277" y="2168" type="line"/>
      <point x="23" y="2168" type="line"/>
      <point x="23" y="1914" type="line"/>
    </contour>
    <contour>
      <point x="-2" y="2217" type="curve" smooth="yes"/>
      <point x="301" y="2217" type="line" smooth="yes"/>
      <point x="312" y="2217"/>
      <point x="326" y="2207"/>
      <point x="326" y="2192" type="curve" smooth="yes"/>
      <point x="326" y="1889" type="line" smooth="yes"/>
      <point x="326" y="1879"/>
      <point x="316" y="1865"/>
      <point x="301" y="1865" type="curve" smooth="yes"/>
      <point x="-2" y="1865" type="line" smooth="yes"/>
      <point x="-12" y="1865"/>
      <point x="-26" y="1874"/>
      <point x="-26" y="1889" type="curve" smooth="yes"/>
      <point x="-26" y="2192" type="line" smooth="yes"/>
      <point x="-26" y="2203"/>
      <point x="-16" y="2217"/>
    </contour>
    <contour>
      <point x="277" y="1914" type="line"/>
      <point x="277" y="2168" type="line"/>
      <point x="23" y="2168" type="line"/>
      <point x="23" y="1914" type="line"/>
    </contour>
    <contour>
      <point x="-2" y="2217" type="curve" smooth="yes"/>
      <point x="301" y="2217" type="line" smooth="yes"/>
      <point x="312" y="2217"/>
      <point x="326" y="2207"/>
      <point x="326" y="2192" type="curve" smooth="yes"/>
      <point x="326" y="1889" type="line" smooth="yes"/>
      <point x="326" y="1879"/>
      <point x="316" y="1865"/>
      <point x="301" y="1865" type="curve" smooth="yes"/>
      <point x="-2" y="1865" type="line" smooth="yes"/>
      <point x="-12" y="1865"/>
      <point x="-26" y="1874"/>
      <point x="-26" y="1889" type="curve" smooth="yes"/>
      <point x="-26" y="2192" type="line" smooth="yes"/>
      <point x="-26" y="2203"/>
      <point x="-16" y="2217"/>
    </contour>
    <contour>
      <point x="743" y="1903" type="line"/>
      <point x="743" y="2178" type="line"/>
      <point x="467" y="2178" type="line"/>
      <point x="467" y="1903" type="line"/>
    </contour>
    <contour>
      <point x="453" y="2206" type="curve" smooth="yes"/>
      <point x="756" y="2206" type="line" smooth="yes"/>
      <point x="762" y="2206"/>
      <point x="770" y="2200"/>
      <point x="770" y="2192" type="curve" smooth="yes"/>
      <point x="770" y="1889" type="line" smooth="yes"/>
      <point x="770" y="1883"/>
      <point x="765" y="1876"/>
      <point x="756" y="1876" type="curve" smooth="yes"/>
      <point x="453" y="1876" type="line" smooth="yes"/>
      <point x="448" y="1876"/>
      <point x="440" y="1881"/>
      <point x="440" y="1889" type="curve" smooth="yes"/>
      <point x="440" y="2192" type="line" smooth="yes"/>
      <point x="440" y="2198"/>
      <point x="445" y="2206"/>
    </contour>
    <contour>
      <point x="743" y="1903" type="line"/>
      <point x="743" y="2178" type="line"/>
      <point x="467" y="2178" type="line"/>
      <point x="467" y="1903" type="line"/>
    </contour>
    <contour>
      <point x="453" y="2206" type="curve" smooth="yes"/>
      <point x="756" y="2206" type="line" smooth="yes"/>
      <point x="762" y="2206"/>
      <point x="770" y="2200"/>
      <point x="770" y="2192" type="curve" smooth="yes"/>
      <point x="770" y="1889" type="line" smooth="yes"/>
      <point x="770" y="1883"/>
      <point x="765" y="1876"/>
      <point x="756" y="1876" type="curve" smooth="yes"/>
      <point x="453" y="1876" type="line" smooth="yes"/>
      <point x="448" y="1876"/>
      <point x="440" y="1881"/>
      <point x="440" y="1889" type="curve" smooth="yes"/>
      <point x="440" y="2192" type="line" smooth="yes"/>
      <point x="440" y="2198"/>
      <point x="445" y="2206"/>
    </contour>
    <contour>
      <point x="743" y="1903" type="line"/>
      <point x="743" y="2178" type="line"/>
      <point x="467" y="2178" type="line"/>
      <point x="467" y="1903" type="line"/>
    </contour>
    <contour>
      <point x="453" y="2206" type="curve" smooth="yes"/>
      <point x="756" y="2206" type="line" smooth="yes"/>
      <point x="762" y="2206"/>
      <point x="770" y="2200"/>
      <point x="770" y="2192" type="curve" smooth="yes"/>
      <point x="770" y="1889" type="line" smooth="yes"/>
      <point x="770" y="1883"/>
      <point x="765" y="1876"/>
      <point x="756" y="1876" type="curve" smooth="yes"/>
      <point x="453" y="1876" type="line" smooth="yes"/>
      <point x="448" y="1876"/>
      <point x="440" y="1881"/>
      <point x="440" y="1889" type="curve" smooth="yes"/>
      <point x="440" y="2192" type="line" smooth="yes"/>
      <point x="440" y="2198"/>
      <point x="445" y="2206"/>
    </contour>
    <contour>
      <point x="895" y="2192" type="line"/>
      <point x="1198" y="2192" type="line"/>
      <point x="1198" y="1889" type="line"/>
      <point x="895" y="1889" type="line"/>
    </contour>
    <contour>
      <point x="895" y="2192" type="line"/>
      <point x="1198" y="2192" type="line"/>
      <point x="1198" y="1889" type="line"/>
      <point x="895" y="1889" type="line"/>
    </contour>
    <contour>
      <point x="895" y="2192" type="line"/>
      <point x="1198" y="2192" type="line"/>
      <point x="1198" y="1889" type="line"/>
      <point x="895" y="1889" type="line"/>
    </contour>
    <contour>
      <point x="1357" y="2192" type="line"/>
      <point x="1660" y="2192" type="line"/>
      <point x="1660" y="1889" type="line"/>
      <point x="1357" y="1889" type="line"/>
    </contour>
    <contour>
      <point x="1357" y="2192" type="line"/>
      <point x="1660" y="2192" type="line"/>
      <point x="1660" y="1889" type="line"/>
      <point x="1357" y="1889" type="line"/>
    </contour>
    <contour>
      <point x="1357" y="2192" type="line"/>
      <point x="1660" y="2192" type="line"/>
      <point x="1660" y="1889" type="line"/>
      <point x="1357" y="1889" type="line"/>
    </contour>
    <contour>
      <point x="-157" y="1108" type="line"/>
      <point x="-157" y="1346" type="line"/>
      <point x="-394" y="1346" type="line"/>
      <point x="-394" y="1108" type="line"/>
    </contour>
    <contour>
      <point x="-427" y="1411" type="curve" smooth="yes"/>
      <point x="-124" y="1411" type="line" smooth="yes"/>
      <point x="-110" y="1411"/>
      <point x="-92" y="1398"/>
      <point x="-92" y="1378" type="curve" smooth="yes"/>
      <point x="-92" y="1075" type="line" smooth="yes"/>
      <point x="-92" y="1061"/>
      <point x="-105" y="1043"/>
      <point x="-124" y="1043" type="curve" smooth="yes"/>
      <point x="-427" y="1043" type="line" smooth="yes"/>
      <point x="-441" y="1043"/>
      <point x="-460" y="1056"/>
      <point x="-460" y="1075" type="curve" smooth="yes"/>
      <point x="-460" y="1378" type="line" smooth="yes"/>
      <point x="-460" y="1392"/>
      <point x="-447" y="1411"/>
    </contour>
    <contour>
      <point x="-157" y="-424" type="line"/>
      <point x="-157" y="-186" type="line"/>
      <point x="-394" y="-186" type="line"/>
      <point x="-394" y="-424" type="line"/>
    </contour>
    <contour>
      <point x="-427" y="-121" type="curve" smooth="yes"/>
      <point x="-124" y="-121" type="line" smooth="yes"/>
      <point x="-110" y="-121"/>
      <point x="-92" y="-134"/>
      <point x="-92" y="-154" type="curve" smooth="yes"/>
      <point x="-92" y="-457" type="line" smooth="yes"/>
      <point x="-92" y="-471"/>
      <point x="-105" y="-489"/>
      <point x="-124" y="-489" type="curve" smooth="yes"/>
      <point x="-427" y="-489" type="line" smooth="yes"/>
      <point x="-441" y="-489"/>
      <point x="-460" y="-476"/>
      <point x="-460" y="-457" type="curve" smooth="yes"/>
      <point x="-460" y="-154" type="line" smooth="yes"/>
      <point x="-460" y="-140"/>
      <point x="-447" y="-121"/>
    </contour>
    <contour>
      <point x="281" y="1484" type="line"/>
      <point x="281" y="1760" type="line"/>
      <point x="5" y="1760" type="line"/>
      <point x="5" y="1484" type="line"/>
    </contour>
    <contour>
      <point x="-8" y="1787" type="curve" smooth="yes"/>
      <point x="295" y="1787" type="line" smooth="yes"/>
      <point x="301" y="1787"/>
      <point x="308" y="1781"/>
      <point x="308" y="1773" type="curve" smooth="yes"/>
      <point x="308" y="1470" type="line" smooth="yes"/>
      <point x="308" y="1464"/>
      <point x="303" y="1457"/>
      <point x="295" y="1457" type="curve" smooth="yes"/>
      <point x="-8" y="1457" type="line" smooth="yes"/>
      <point x="-14" y="1457"/>
      <point x="-22" y="1462"/>
      <point x="-22" y="1470" type="curve" smooth="yes"/>
      <point x="-22" y="1773" type="line" smooth="yes"/>
      <point x="-22" y="1779"/>
      <point x="-16" y="1787"/>
    </contour>
    <contour>
      <point x="254" y="360" type="line"/>
      <point x="254" y="581" type="line"/>
      <point x="33" y="581" type="line"/>
      <point x="33" y="360" type="line"/>
    </contour>
    <contour>
      <point x="-8" y="663" type="curve" smooth="yes"/>
      <point x="295" y="663" type="line" smooth="yes"/>
      <point x="312" y="663"/>
      <point x="336" y="647"/>
      <point x="336" y="622" type="curve" smooth="yes"/>
      <point x="336" y="319" type="line" smooth="yes"/>
      <point x="336" y="302"/>
      <point x="319" y="278"/>
      <point x="295" y="278" type="curve" smooth="yes"/>
      <point x="-8" y="278" type="line" smooth="yes"/>
      <point x="-26" y="278"/>
      <point x="-49" y="295"/>
      <point x="-49" y="319" type="curve" smooth="yes"/>
      <point x="-49" y="622" type="line" smooth="yes"/>
      <point x="-49" y="640"/>
      <point x="-33" y="663"/>
    </contour>
    <contour>
      <point x="453" y="1773" type="line"/>
      <point x="756" y="1773" type="line"/>
      <point x="756" y="1470" type="line"/>
      <point x="453" y="1470" type="line"/>
    </contour>
    <contour>
      <point x="743" y="1089" type="line"/>
      <point x="743" y="1365" type="line"/>
      <point x="467" y="1365" type="line"/>
      <point x="467" y="1089" type="line"/>
    </contour>
    <contour>
      <point x="453" y="1392" type="curve" smooth="yes"/>
      <point x="756" y="1392" type="line" smooth="yes"/>
      <point x="762" y="1392"/>
      <point x="770" y="1387"/>
      <point x="770" y="1378" type="curve" smooth="yes"/>
      <point x="770" y="1076" type="line" smooth="yes"/>
      <point x="770" y="1070"/>
      <point x="765" y="1062"/>
      <point x="756" y="1062" type="curve" smooth="yes"/>
      <point x="453" y="1062" type="line" smooth="yes"/>
      <point x="448" y="1062"/>
      <point x="440" y="1067"/>
      <point x="440" y="1076" type="curve" smooth="yes"/>
      <point x="440" y="1378" type="line" smooth="yes"/>
      <point x="440" y="1384"/>
      <point x="445" y="1392"/>
    </contour>
    <contour>
      <point x="453" y="1005" type="line"/>
      <point x="756" y="1005" type="line"/>
      <point x="756" y="702" type="line"/>
      <point x="453" y="702" type="line"/>
    </contour>
    <contour>
      <point x="729" y="-36" type="line"/>
      <point x="729" y="212" type="line"/>
      <point x="481" y="212" type="line"/>
      <point x="481" y="-36" type="line"/>
    </contour>
    <contour>
      <point x="453" y="266" type="curve" smooth="yes"/>
      <point x="756" y="266" type="line" smooth="yes"/>
      <point x="768" y="266"/>
      <point x="784" y="256"/>
      <point x="784" y="239" type="curve" smooth="yes"/>
      <point x="784" y="-64" type="line" smooth="yes"/>
      <point x="784" y="-75"/>
      <point x="773" y="-91"/>
      <point x="756" y="-91" type="curve" smooth="yes"/>
      <point x="453" y="-91" type="line" smooth="yes"/>
      <point x="442" y="-91"/>
      <point x="426" y="-80"/>
      <point x="426" y="-64" type="curve" smooth="yes"/>
      <point x="426" y="239" type="line" smooth="yes"/>
      <point x="426" y="251"/>
      <point x="437" y="266"/>
    </contour>
    <contour>
      <point x="895" y="1773" type="line"/>
      <point x="1198" y="1773" type="line"/>
      <point x="1198" y="1470" type="line"/>
      <point x="895" y="1470" type="line"/>
    </contour>
    <contour>
      <point x="895" y="1378" type="line"/>
      <point x="1198" y="1378" type="line"/>
      <point x="1198" y="1076" type="line"/>
      <point x="895" y="1076" type="line"/>
    </contour>
    <contour>
      <point x="895" y="622" type="line"/>
      <point x="1198" y="622" type="line"/>
      <point x="1198" y="319" type="line"/>
      <point x="895" y="319" type="line"/>
    </contour>
    <contour>
      <point x="895" y="239" type="line"/>
      <point x="1198" y="239" type="line"/>
      <point x="1198" y="-64" type="line"/>
      <point x="895" y="-64" type="line"/>
    </contour>
    <contour>
      <point x="895" y="-154" type="line"/>
      <point x="1198" y="-154" type="line"/>
      <point x="1198" y="-457" type="line"/>
      <point x="895" y="-457" type="line"/>
    </contour>
    <contour>
      <point x="1357" y="1773" type="line"/>
      <point x="1660" y="1773" type="line"/>
      <point x="1660" y="1470" type="line"/>
      <point x="1357" y="1470" type="line"/>
    </contour>
    <contour>
      <point x="1357" y="1378" type="line"/>
      <point x="1660" y="1378" type="line"/>
      <point x="1660" y="1076" type="line"/>
      <point x="1357" y="1076" type="line"/>
    </contour>
    <contour>
      <point x="1357" y="1005" type="line"/>
      <point x="1660" y="1005" type="line"/>
      <point x="1660" y="702" type="line"/>
      <point x="1357" y="702" type="line"/>
    </contour>
    <contour>
      <point x="1357" y="622" type="line"/>
      <point x="1660" y="622" type="line"/>
      <point x="1660" y="319" type="line"/>
      <point x="1357" y="319" type="line"/>
    </contour>
    <contour>
      <point x="1357" y="239" type="line"/>
      <point x="1660" y="239" type="line"/>
      <point x="1660" y="-64" type="line"/>
      <point x="1357" y="-64" type="line"/>
    </contour>
    <contour>
      <point x="1357" y="-154" type="line"/>
      <point x="1660" y="-154" type="line"/>
      <point x="1660" y="-457" type="line"/>
      <point x="1357" y="-457" type="line"/>
    </contour>
  </outline>
</glyph>
<glyph name="uniE0CA" format="2">
  <advance width="1200"/>
  <unicode hex="E0CA"/>
  <note>
uniE0CA
</note>
  <outline>
    <contour>
      <point x="2248" y="-475" type="curve" smooth="yes"/>
      <point x="2248" y="-475" type="line"/>
      <point x="2251" y="2218" type="line" smooth="yes"/>
      <point x="2251" y="2221"/>
      <point x="2247" y="2224"/>
      <point x="2244" y="2224" type="curve" smooth="yes"/>
      <point x="2243" y="2224"/>
      <point x="2198" y="2229"/>
      <point x="2153" y="2217" type="curve" smooth="yes"/>
      <point x="2115" y="2208"/>
      <point x="1954" y="2229"/>
      <point x="1879" y="2207" type="curve" smooth="yes"/>
      <point x="1809" y="2186"/>
      <point x="1794" y="2190"/>
      <point x="1748" y="2175" type="curve" smooth="yes"/>
      <point x="1707" y="2161"/>
      <point x="1698" y="2172"/>
      <point x="1665" y="2162" type="curve" smooth="yes"/>
      <point x="1641" y="2155"/>
      <point x="1547" y="2157"/>
      <point x="1501" y="2145" type="curve" smooth="yes"/>
      <point x="1494" y="2144"/>
      <point x="1488" y="2143"/>
      <point x="1484" y="2143" type="curve" smooth="yes"/>
      <point x="1469" y="2143"/>
      <point x="1465" y="2150"/>
      <point x="1442" y="2150" type="curve" smooth="yes"/>
      <point x="1435" y="2150"/>
      <point x="1426" y="2150"/>
      <point x="1415" y="2148" type="curve" smooth="yes"/>
      <point x="1359" y="2139"/>
      <point x="1375" y="2133"/>
      <point x="1315" y="2125" type="curve" smooth="yes"/>
      <point x="1253" y="2116"/>
      <point x="1225" y="2110"/>
      <point x="1209" y="2102" type="curve" smooth="yes"/>
      <point x="1208" y="2102"/>
      <point x="1205" y="2102"/>
      <point x="1199" y="2102" type="curve" smooth="yes"/>
      <point x="1193" y="2102" type="line" smooth="yes"/>
      <point x="1165" y="2102"/>
      <point x="1113" y="2101"/>
      <point x="1113" y="2079" type="curve" smooth="yes"/>
      <point x="1113" y="2056"/>
      <point x="1167" y="2054"/>
      <point x="1200" y="2054" type="curve" smooth="yes"/>
      <point x="1207" y="2054"/>
      <point x="1212" y="2054"/>
      <point x="1217" y="2054" type="curve" smooth="yes"/>
      <point x="1221" y="2054"/>
      <point x="1223" y="2054"/>
      <point x="1224" y="2054" type="curve" smooth="yes"/>
      <point x="1232" y="2052"/>
      <point x="1231" y="2037"/>
      <point x="1282" y="2032" type="curve" smooth="yes"/>
      <point x="1295" y="2031"/>
      <point x="1305" y="2031"/>
      <point x="1313" y="2031" type="curve" smooth="yes"/>
      <point x="1337" y="2031"/>
      <point x="1346" y="2034"/>
      <point x="1370" y="2034" type="curve" smooth="yes"/>
      <point x="1402" y="2034"/>
      <point x="1496" y="2024"/>
      <point x="1525" y="2016" type="curve" smooth="yes"/>
      <point x="1561" y="2006"/>
      <point x="1737" y="2009"/>
      <point x="1752" y="2005" type="curve" smooth="yes"/>
      <point x="1757" y="2004"/>
      <point x="1763" y="2004"/>
      <point x="1769" y="2004" type="curve" smooth="yes"/>
      <point x="1786" y="2004"/>
      <point x="1809" y="2006"/>
      <point x="1834" y="2006" type="curve" smooth="yes"/>
      <point x="1851" y="2006"/>
      <point x="1870" y="2005"/>
      <point x="1889" y="2001" type="curve" smooth="yes"/>
      <point x="1896" y="1999"/>
      <point x="1899" y="1998"/>
      <point x="1901" y="1997" type="curve"/>
      <point x="1890" y="1989"/>
      <point x="1843" y="1981"/>
      <point x="1833" y="1981" type="curve" smooth="yes"/>
      <point x="1810" y="1981"/>
      <point x="1659" y="1951"/>
      <point x="1637" y="1951" type="curve" smooth="yes"/>
      <point x="1611" y="1951"/>
      <point x="1561" y="1947"/>
      <point x="1526" y="1940" type="curve" smooth="yes"/>
      <point x="1520" y="1939"/>
      <point x="1514" y="1939"/>
      <point x="1508" y="1939" type="curve" smooth="yes"/>
      <point x="1488" y="1939"/>
      <point x="1472" y="1945"/>
      <point x="1433" y="1949" type="curve" smooth="yes"/>
      <point x="1427" y="1949"/>
      <point x="1419" y="1950"/>
      <point x="1410" y="1950" type="curve" smooth="yes"/>
      <point x="1345" y="1950"/>
      <point x="1218" y="1937"/>
      <point x="1184" y="1918" type="curve" smooth="yes"/>
      <point x="1177" y="1914"/>
      <point x="1170" y="1912"/>
      <point x="1163" y="1912" type="curve" smooth="yes"/>
      <point x="1141" y="1912"/>
      <point x="1113" y="1925"/>
      <point x="1035" y="1930" type="curve" smooth="yes"/>
      <point x="1010" y="1931"/>
      <point x="993" y="1932"/>
      <point x="981" y="1932" type="curve" smooth="yes"/>
      <point x="948" y="1932"/>
      <point x="956" y="1926"/>
      <point x="930" y="1912" type="curve" smooth="yes"/>
      <point x="916" y="1905"/>
      <point x="910" y="1902"/>
      <point x="904" y="1902" type="curve" smooth="yes"/>
      <point x="893" y="1902"/>
      <point x="881" y="1909"/>
      <point x="830" y="1911" type="curve" smooth="yes"/>
      <point x="826" y="1911"/>
      <point x="822" y="1911"/>
      <point x="818" y="1911" type="curve" smooth="yes"/>
      <point x="752" y="1911"/>
      <point x="749" y="1893"/>
      <point x="710" y="1890" type="curve" smooth="yes"/>
      <point x="664" y="1885"/>
      <point x="618" y="1883"/>
      <point x="562" y="1883" type="curve" smooth="yes"/>
      <point x="505" y="1883"/>
      <point x="448" y="1875"/>
      <point x="388" y="1857" type="curve" smooth="yes"/>
      <point x="371" y="1852"/>
      <point x="361" y="1851"/>
      <point x="353" y="1851" type="curve" smooth="yes"/>
      <point x="336" y="1851"/>
      <point x="337" y="1860"/>
      <point x="308" y="1860" type="curve" smooth="yes"/>
      <point x="272" y="1860"/>
      <point x="278" y="1852"/>
      <point x="227" y="1852" type="curve" smooth="yes"/>
      <point x="174" y="1852"/>
      <point x="146" y="1847"/>
      <point x="103" y="1834" type="curve" smooth="yes"/>
      <point x="78" y="1827"/>
      <point x="63" y="1824"/>
      <point x="50" y="1824" type="curve" smooth="yes"/>
      <point x="40" y="1824"/>
      <point x="31" y="1825"/>
      <point x="18" y="1828" type="curve" smooth="yes"/>
      <point x="14" y="1829"/>
      <point x="10" y="1829"/>
      <point x="7" y="1829" type="curve" smooth="yes"/>
      <point x="-18" y="1829"/>
      <point x="-34" y="1813"/>
      <point x="-34" y="1797" type="curve" smooth="yes"/>
      <point x="-34" y="1790"/>
      <point x="-31" y="1784"/>
      <point x="-25" y="1779" type="curve" smooth="yes"/>
      <point x="-2" y="1757"/>
      <point x="79" y="1759"/>
      <point x="117" y="1755" type="curve" smooth="yes"/>
      <point x="125" y="1754"/>
      <point x="132" y="1754"/>
      <point x="140" y="1754" type="curve" smooth="yes"/>
      <point x="158" y="1754"/>
      <point x="177" y="1756"/>
      <point x="198" y="1756" type="curve" smooth="yes"/>
      <point x="220" y="1756"/>
      <point x="245" y="1754"/>
      <point x="274" y="1747" type="curve" smooth="yes"/>
      <point x="315" y="1737"/>
      <point x="388" y="1734"/>
      <point x="451" y="1734" type="curve" smooth="yes"/>
      <point x="502" y="1734"/>
      <point x="548" y="1736"/>
      <point x="564" y="1738" type="curve" smooth="yes"/>
      <point x="567" y="1738"/>
      <point x="569" y="1739"/>
      <point x="572" y="1739" type="curve" smooth="yes"/>
      <point x="598" y="1739"/>
      <point x="621" y="1723"/>
      <point x="652" y="1721" type="curve" smooth="yes"/>
      <point x="680" y="1719"/>
      <point x="776" y="1714"/>
      <point x="810" y="1701" type="curve" smooth="yes"/>
      <point x="820" y="1696"/>
      <point x="830" y="1695"/>
      <point x="839" y="1695" type="curve" smooth="yes"/>
      <point x="864" y="1695"/>
      <point x="882" y="1708"/>
      <point x="894" y="1708" type="curve" smooth="yes"/>
      <point x="897" y="1708"/>
      <point x="899" y="1707"/>
      <point x="901" y="1706" type="curve" smooth="yes"/>
      <point x="913" y="1698"/>
      <point x="940" y="1694"/>
      <point x="971" y="1694" type="curve" smooth="yes"/>
      <point x="1012" y="1694"/>
      <point x="1059" y="1700"/>
      <point x="1085" y="1709" type="curve" smooth="yes"/>
      <point x="1091" y="1711"/>
      <point x="1098" y="1712"/>
      <point x="1106" y="1712" type="curve" smooth="yes"/>
      <point x="1147" y="1712"/>
      <point x="1208" y="1689"/>
      <point x="1254" y="1685" type="curve" smooth="yes"/>
      <point x="1304" y="1681"/>
      <point x="1460" y="1676"/>
      <point x="1475" y="1671" type="curve" smooth="yes"/>
      <point x="1501" y="1662"/>
      <point x="1647" y="1677"/>
      <point x="1738" y="1639" type="curve" smooth="yes"/>
      <point x="1761" y="1630"/>
      <point x="1770" y="1622"/>
      <point x="1770" y="1615" type="curve" smooth="yes"/>
      <point x="1770" y="1598"/>
      <point x="1717" y="1589"/>
      <point x="1684" y="1589" type="curve" smooth="yes"/>
      <point x="1638" y="1589"/>
      <point x="1471" y="1568"/>
      <point x="1434" y="1563" type="curve" smooth="yes"/>
      <point x="1399" y="1560"/>
      <point x="1349" y="1551"/>
      <point x="1319" y="1551" type="curve" smooth="yes"/>
      <point x="1317" y="1551"/>
      <point x="1314" y="1551"/>
      <point x="1312" y="1551" type="curve" smooth="yes"/>
      <point x="1310" y="1551"/>
      <point x="1308" y="1551"/>
      <point x="1306" y="1551" type="curve" smooth="yes"/>
      <point x="1267" y="1551"/>
      <point x="1176" y="1529"/>
      <point x="1152" y="1508" type="curve" smooth="yes"/>
      <point x="1148" y="1505"/>
      <point x="1144" y="1504"/>
      <point x="1140" y="1504" type="curve" smooth="yes"/>
      <point x="1128" y="1504"/>
      <point x="1114" y="1512"/>
      <point x="1092" y="1512" type="curve" smooth="yes"/>
      <point x="1084" y="1512"/>
      <point x="1075" y="1511"/>
      <point x="1065" y="1508" type="curve" smooth="yes"/>
      <point x="1030" y="1498"/>
      <point x="968" y="1494"/>
      <point x="940" y="1492" type="curve" smooth="yes"/>
      <point x="908" y="1489"/>
      <point x="912" y="1477"/>
      <point x="897" y="1477" type="curve" smooth="yes"/>
      <point x="895" y="1477"/>
      <point x="892" y="1478"/>
      <point x="888" y="1479" type="curve" smooth="yes"/>
      <point x="879" y="1481"/>
      <point x="863" y="1481"/>
      <point x="844" y="1481" type="curve" smooth="yes"/>
      <point x="790" y="1481"/>
      <point x="711" y="1474"/>
      <point x="671" y="1461" type="curve" smooth="yes"/>
      <point x="646" y="1453"/>
      <point x="628" y="1451"/>
      <point x="610" y="1451" type="curve" smooth="yes"/>
      <point x="592" y="1451"/>
      <point x="573" y="1453"/>
      <point x="547" y="1453" type="curve" smooth="yes"/>
      <point x="498" y="1453"/>
      <point x="452" y="1452"/>
      <point x="430" y="1420" type="curve" smooth="yes"/>
      <point x="428" y="1417"/>
      <point x="427" y="1414"/>
      <point x="427" y="1412" type="curve" smooth="yes"/>
      <point x="427" y="1383"/>
      <point x="544" y="1385"/>
      <point x="564" y="1382" type="curve" smooth="yes"/>
      <point x="599" y="1378"/>
      <point x="723" y="1369"/>
      <point x="762" y="1361" type="curve" smooth="yes"/>
      <point x="793" y="1355"/>
      <point x="883" y="1332"/>
      <point x="944" y="1332" type="curve" smooth="yes"/>
      <point x="959" y="1332"/>
      <point x="972" y="1333"/>
      <point x="982" y="1336" type="curve" smooth="yes"/>
      <point x="999" y="1342"/>
      <point x="1014" y="1344"/>
      <point x="1028" y="1344" type="curve" smooth="yes"/>
      <point x="1052" y="1344"/>
      <point x="1072" y="1338"/>
      <point x="1089" y="1330" type="curve" smooth="yes"/>
      <point x="1099" y="1326"/>
      <point x="1111" y="1324"/>
      <point x="1123" y="1324" type="curve" smooth="yes"/>
      <point x="1143" y="1324"/>
      <point x="1165" y="1328"/>
      <point x="1183" y="1328" type="curve" smooth="yes"/>
      <point x="1188" y="1328"/>
      <point x="1193" y="1328"/>
      <point x="1197" y="1327" type="curve" smooth="yes"/>
      <point x="1236" y="1321"/>
      <point x="1330" y="1320"/>
      <point x="1350" y="1311" type="curve" smooth="yes"/>
      <point x="1379" y="1299"/>
      <point x="1456" y="1299"/>
      <point x="1484" y="1290" type="curve" smooth="yes"/>
      <point x="1517" y="1279"/>
      <point x="1613" y="1258"/>
      <point x="1645" y="1214" type="curve" smooth="yes"/>
      <point x="1655" y="1200"/>
      <point x="1660" y="1192"/>
      <point x="1660" y="1186" type="curve" smooth="yes"/>
      <point x="1660" y="1174"/>
      <point x="1640" y="1170"/>
      <point x="1605" y="1131" type="curve" smooth="yes"/>
      <point x="1552" y="1073"/>
      <point x="1609" y="1072"/>
      <point x="1461" y="1053" type="curve" smooth="yes"/>
      <point x="1445" y="1051"/>
      <point x="1428" y="1051"/>
      <point x="1411" y="1051" type="curve" smooth="yes"/>
      <point x="1394" y="1051"/>
      <point x="1378" y="1051"/>
      <point x="1363" y="1051" type="curve" smooth="yes"/>
      <point x="1343" y="1051"/>
      <point x="1324" y="1050"/>
      <point x="1308" y="1047" type="curve" smooth="yes"/>
      <point x="1284" y="1041"/>
      <point x="1256" y="1040"/>
      <point x="1228" y="1040" type="curve" smooth="yes"/>
      <point x="1215" y="1040"/>
      <point x="1202" y="1041"/>
      <point x="1190" y="1041" type="curve" smooth="yes"/>
      <point x="1150" y="1041"/>
      <point x="1058" y="1026"/>
      <point x="1029" y="1012" type="curve" smooth="yes"/>
      <point x="1023" y="1009"/>
      <point x="1020" y="1006"/>
      <point x="1020" y="1003" type="curve" smooth="yes"/>
      <point x="1020" y="987"/>
      <point x="1109" y="979"/>
      <point x="1136" y="978" type="curve" smooth="yes"/>
      <point x="1183" y="976"/>
      <point x="1225" y="972"/>
      <point x="1261" y="961" type="curve" smooth="yes"/>
      <point x="1276" y="957"/>
      <point x="1301" y="956"/>
      <point x="1330" y="956" type="curve" smooth="yes"/>
      <point x="1354" y="956"/>
      <point x="1382" y="957"/>
      <point x="1408" y="957" type="curve" smooth="yes"/>
      <point x="1436" y="957"/>
      <point x="1464" y="956"/>
      <point x="1486" y="953" type="curve" smooth="yes"/>
      <point x="1504" y="950"/>
      <point x="1512" y="947"/>
      <point x="1514" y="946" type="curve"/>
      <point x="1511" y="943"/>
      <point x="1501" y="940"/>
      <point x="1498" y="939" type="curve" smooth="yes"/>
      <point x="1487" y="938"/>
      <point x="1418" y="934"/>
      <point x="1384" y="934" type="curve" smooth="yes"/>
      <point x="1375" y="934"/>
      <point x="1369" y="934"/>
      <point x="1366" y="935" type="curve" smooth="yes"/>
      <point x="1363" y="935"/>
      <point x="1359" y="935"/>
      <point x="1354" y="935" type="curve" smooth="yes"/>
      <point x="1319" y="935"/>
      <point x="1245" y="919"/>
      <point x="1215" y="913" type="curve" smooth="yes"/>
      <point x="1183" y="907"/>
      <point x="1143" y="907"/>
      <point x="1080" y="903" type="curve" smooth="yes"/>
      <point x="1068" y="902"/>
      <point x="1057" y="902"/>
      <point x="1046" y="902" type="curve" smooth="yes"/>
      <point x="1016" y="902"/>
      <point x="992" y="904"/>
      <point x="970" y="904" type="curve" smooth="yes"/>
      <point x="962" y="904"/>
      <point x="954" y="904"/>
      <point x="946" y="903" type="curve" smooth="yes"/>
      <point x="913" y="898"/>
      <point x="884" y="886"/>
      <point x="807" y="884" type="curve" smooth="yes"/>
      <point x="731" y="882"/>
      <point x="702" y="875"/>
      <point x="691" y="852" type="curve" smooth="yes"/>
      <point x="690" y="850"/>
      <point x="689" y="848"/>
      <point x="689" y="846" type="curve" smooth="yes"/>
      <point x="689" y="824"/>
      <point x="767" y="829"/>
      <point x="798" y="828" type="curve" smooth="yes"/>
      <point x="832" y="826"/>
      <point x="849" y="814"/>
      <point x="899" y="814" type="curve" smooth="yes"/>
      <point x="907" y="814"/>
      <point x="915" y="814"/>
      <point x="924" y="815" type="curve" smooth="yes"/>
      <point x="929" y="815"/>
      <point x="935" y="815"/>
      <point x="940" y="815" type="curve" smooth="yes"/>
      <point x="993" y="815"/>
      <point x="1017" y="798"/>
      <point x="1060" y="790" type="curve" smooth="yes"/>
      <point x="1104" y="781"/>
      <point x="1213" y="768"/>
      <point x="1252" y="758" type="curve" smooth="yes"/>
      <point x="1294" y="747"/>
      <point x="1390" y="739"/>
      <point x="1478" y="732" type="curve" smooth="yes"/>
      <point x="1523" y="729"/>
      <point x="1541" y="724"/>
      <point x="1544" y="722" type="curve"/>
      <point x="1543" y="721"/>
      <point x="1539" y="717"/>
      <point x="1532" y="713" type="curve" smooth="yes"/>
      <point x="1525" y="709"/>
      <point x="1514" y="708"/>
      <point x="1501" y="708" type="curve" smooth="yes"/>
      <point x="1486" y="708"/>
      <point x="1468" y="709"/>
      <point x="1449" y="709" type="curve" smooth="yes"/>
      <point x="1441" y="709"/>
      <point x="1432" y="709"/>
      <point x="1424" y="708" type="curve" smooth="yes"/>
      <point x="1398" y="705"/>
      <point x="1285" y="703"/>
      <point x="1214" y="703" type="curve" smooth="yes"/>
      <point x="1190" y="703"/>
      <point x="1171" y="703"/>
      <point x="1163" y="704" type="curve" smooth="yes"/>
      <point x="1159" y="704"/>
      <point x="1156" y="704"/>
      <point x="1153" y="704" type="curve" smooth="yes"/>
      <point x="1131" y="704"/>
      <point x="1121" y="699"/>
      <point x="1098" y="699" type="curve" smooth="yes"/>
      <point x="1089" y="699"/>
      <point x="1078" y="700"/>
      <point x="1064" y="702" type="curve" smooth="yes"/>
      <point x="1051" y="704"/>
      <point x="1040" y="704"/>
      <point x="1032" y="704" type="curve" smooth="yes"/>
      <point x="1003" y="704"/>
      <point x="1000" y="695"/>
      <point x="979" y="691" type="curve" smooth="yes"/>
      <point x="946" y="685"/>
      <point x="957" y="689"/>
      <point x="912" y="685" type="curve" smooth="yes"/>
      <point x="871" y="681"/>
      <point x="841" y="685"/>
      <point x="801" y="674" type="curve" smooth="yes"/>
      <point x="794" y="672"/>
      <point x="781" y="671"/>
      <point x="766" y="671" type="curve" smooth="yes"/>
      <point x="740" y="671"/>
      <point x="706" y="673"/>
      <point x="675" y="673" type="curve" smooth="yes"/>
      <point x="646" y="673"/>
      <point x="619" y="671"/>
      <point x="604" y="665" type="curve" smooth="yes"/>
      <point x="593" y="660"/>
      <point x="581" y="658"/>
      <point x="567" y="658" type="curve" smooth="yes"/>
      <point x="546" y="658"/>
      <point x="521" y="662"/>
      <point x="488" y="664" type="curve" smooth="yes"/>
      <point x="485" y="664"/>
      <point x="481" y="664"/>
      <point x="478" y="664" type="curve" smooth="yes"/>
      <point x="431" y="664"/>
      <point x="399" y="651"/>
      <point x="317" y="651" type="curve" smooth="yes"/>
      <point x="227" y="651"/>
      <point x="222" y="647"/>
      <point x="188" y="632" type="curve" smooth="yes"/>
      <point x="182" y="629"/>
      <point x="173" y="629"/>
      <point x="160" y="629" type="curve" smooth="yes"/>
      <point x="150" y="629"/>
      <point x="137" y="629"/>
      <point x="123" y="629" type="curve" smooth="yes"/>
      <point x="81" y="629"/>
      <point x="22" y="626"/>
      <point x="-48" y="597" type="curve" smooth="yes"/>
      <point x="-55" y="594"/>
      <point x="-63" y="593"/>
      <point x="-72" y="593" type="curve" smooth="yes"/>
      <point x="-94" y="593"/>
      <point x="-120" y="600"/>
      <point x="-146" y="600" type="curve" smooth="yes"/>
      <point x="-176" y="600"/>
      <point x="-241" y="602"/>
      <point x="-273" y="602" type="curve" smooth="yes"/>
      <point x="-306" y="602"/>
      <point x="-389" y="592"/>
      <point x="-418" y="587" type="curve" smooth="yes"/>
      <point x="-421" y="587"/>
      <point x="-424" y="587"/>
      <point x="-428" y="587" type="curve" smooth="yes"/>
      <point x="-455" y="587"/>
      <point x="-504" y="596"/>
      <point x="-546" y="598" type="curve" smooth="yes"/>
      <point x="-549" y="598"/>
      <point x="-553" y="598"/>
      <point x="-558" y="598" type="curve" smooth="yes"/>
      <point x="-606" y="598"/>
      <point x="-673" y="587"/>
      <point x="-712" y="583" type="curve" smooth="yes"/>
      <point x="-727" y="582"/>
      <point x="-756" y="581"/>
      <point x="-791" y="581" type="curve" smooth="yes"/>
      <point x="-828" y="581"/>
      <point x="-872" y="582"/>
      <point x="-912" y="582" type="curve" smooth="yes"/>
      <point x="-935" y="582"/>
      <point x="-957" y="582"/>
      <point x="-975" y="581" type="curve" smooth="yes"/>
      <point x="-1037" y="579"/>
      <point x="-1051" y="569"/>
      <point x="-1051" y="554" type="curve" smooth="yes"/>
      <point x="-1051" y="550"/>
      <point x="-1050" y="545"/>
      <point x="-1048" y="540" type="curve" smooth="yes"/>
      <point x="-1043" y="523"/>
      <point x="-993" y="520"/>
      <point x="-951" y="520" type="curve" smooth="yes"/>
      <point x="-926" y="520"/>
      <point x="-904" y="521"/>
      <point x="-894" y="521" type="curve" smooth="yes"/>
      <point x="-866" y="521"/>
      <point x="-833" y="510"/>
      <point x="-788" y="510" type="curve" smooth="yes"/>
      <point x="-784" y="510"/>
      <point x="-780" y="510"/>
      <point x="-775" y="510" type="curve" smooth="yes"/>
      <point x="-767" y="510"/>
      <point x="-758" y="511"/>
      <point x="-749" y="511" type="curve" smooth="yes"/>
      <point x="-712" y="511"/>
      <point x="-676" y="507"/>
      <point x="-628" y="504" type="curve" smooth="yes"/>
      <point x="-569" y="499"/>
      <point x="-435" y="489"/>
      <point x="-374" y="483" type="curve" smooth="yes"/>
      <point x="-357" y="481"/>
      <point x="-343" y="480"/>
      <point x="-331" y="480" type="curve" smooth="yes"/>
      <point x="-304" y="480"/>
      <point x="-288" y="483"/>
      <point x="-277" y="483" type="curve" smooth="yes"/>
      <point x="-274" y="483"/>
      <point x="-271" y="483"/>
      <point x="-269" y="483" type="curve" smooth="yes"/>
      <point x="-264" y="482"/>
      <point x="-257" y="481"/>
      <point x="-250" y="481" type="curve" smooth="yes"/>
      <point x="-227" y="481"/>
      <point x="-197" y="484"/>
      <point x="-171" y="484" type="curve" smooth="yes"/>
      <point x="-157" y="484"/>
      <point x="-145" y="484"/>
      <point x="-137" y="481" type="curve" smooth="yes"/>
      <point x="-98" y="469"/>
      <point x="56" y="468"/>
      <point x="111" y="463" type="curve" smooth="yes"/>
      <point x="119" y="463"/>
      <point x="126" y="463"/>
      <point x="132" y="463" type="curve" smooth="yes"/>
      <point x="176" y="463"/>
      <point x="198" y="474"/>
      <point x="218" y="474" type="curve" smooth="yes"/>
      <point x="238" y="474"/>
      <point x="231" y="461"/>
      <point x="271" y="461" type="curve" smooth="yes"/>
      <point x="302" y="461"/>
      <point x="381" y="449"/>
      <point x="436" y="440" type="curve" smooth="yes"/>
      <point x="454" y="438"/>
      <point x="467" y="437"/>
      <point x="478" y="437" type="curve" smooth="yes"/>
      <point x="501" y="437"/>
      <point x="515" y="440"/>
      <point x="545" y="440" type="curve" smooth="yes"/>
      <point x="549" y="440"/>
      <point x="554" y="440"/>
      <point x="559" y="440" type="curve" smooth="yes"/>
      <point x="617" y="438"/>
      <point x="628" y="434"/>
      <point x="682" y="425" type="curve" smooth="yes"/>
      <point x="736" y="417"/>
      <point x="1050" y="404"/>
      <point x="1074" y="402" type="curve" smooth="yes"/>
      <point x="1099" y="400"/>
      <point x="1236" y="391"/>
      <point x="1275" y="387" type="curve" smooth="yes"/>
      <point x="1309" y="384"/>
      <point x="1320" y="360"/>
      <point x="1385" y="360" type="curve" smooth="yes"/>
      <point x="1444" y="360"/>
      <point x="1558" y="322"/>
      <point x="1587" y="296" type="curve" smooth="yes"/>
      <point x="1589" y="294"/>
      <point x="1590" y="292"/>
      <point x="1590" y="290" type="curve" smooth="yes"/>
      <point x="1590" y="276"/>
      <point x="1527" y="271"/>
      <point x="1490" y="259" type="curve" smooth="yes"/>
      <point x="1461" y="249"/>
      <point x="1441" y="249"/>
      <point x="1417" y="244" type="curve" smooth="yes"/>
      <point x="1395" y="240"/>
      <point x="1359" y="230"/>
      <point x="1314" y="230" type="curve" smooth="yes"/>
      <point x="1273" y="230"/>
      <point x="1212" y="225"/>
      <point x="1177" y="225" type="curve" smooth="yes"/>
      <point x="1171" y="225"/>
      <point x="1167" y="225"/>
      <point x="1163" y="225" type="curve" smooth="yes"/>
      <point x="1158" y="226"/>
      <point x="1153" y="226"/>
      <point x="1149" y="226" type="curve" smooth="yes"/>
      <point x="1121" y="226"/>
      <point x="1095" y="220"/>
      <point x="1061" y="217" type="curve" smooth="yes"/>
      <point x="1054" y="216"/>
      <point x="1048" y="216"/>
      <point x="1042" y="216" type="curve" smooth="yes"/>
      <point x="1022" y="216"/>
      <point x="1009" y="219"/>
      <point x="980" y="219" type="curve" smooth="yes"/>
      <point x="975" y="219"/>
      <point x="969" y="219"/>
      <point x="963" y="219" type="curve" smooth="yes"/>
      <point x="911" y="217"/>
      <point x="868" y="206"/>
      <point x="813" y="200" type="curve" smooth="yes"/>
      <point x="788" y="197"/>
      <point x="779" y="191"/>
      <point x="779" y="185" type="curve" smooth="yes"/>
      <point x="779" y="171"/>
      <point x="813" y="155"/>
      <point x="831" y="152" type="curve" smooth="yes"/>
      <point x="860" y="148"/>
      <point x="910" y="146"/>
      <point x="934" y="144" type="curve" smooth="yes"/>
      <point x="961" y="141"/>
      <point x="986" y="144"/>
      <point x="1015" y="134" type="curve" smooth="yes"/>
      <point x="1025" y="130"/>
      <point x="1035" y="129"/>
      <point x="1045" y="129" type="curve" smooth="yes"/>
      <point x="1073" y="129"/>
      <point x="1100" y="138"/>
      <point x="1111" y="140" type="curve" smooth="yes"/>
      <point x="1111" y="140"/>
      <point x="1112" y="140"/>
      <point x="1113" y="140" type="curve" smooth="yes"/>
      <point x="1130" y="140"/>
      <point x="1185" y="127"/>
      <point x="1212" y="127" type="curve" smooth="yes"/>
      <point x="1233" y="127"/>
      <point x="1312" y="110"/>
      <point x="1331" y="102" type="curve" smooth="yes"/>
      <point x="1355" y="93"/>
      <point x="1381" y="89"/>
      <point x="1406" y="87" type="curve" smooth="yes"/>
      <point x="1432" y="84"/>
      <point x="1528" y="82"/>
      <point x="1580" y="78" type="curve" smooth="yes"/>
      <point x="1635" y="74"/>
      <point x="1634" y="77"/>
      <point x="1641" y="63" type="curve" smooth="yes"/>
      <point x="1642" y="62"/>
      <point x="1642" y="61"/>
      <point x="1642" y="61" type="curve" smooth="yes"/>
      <point x="1642" y="55"/>
      <point x="1618" y="58"/>
      <point x="1584" y="47" type="curve" smooth="yes"/>
      <point x="1570" y="43"/>
      <point x="1539" y="42"/>
      <point x="1500" y="42" type="curve" smooth="yes"/>
      <point x="1470" y="42"/>
      <point x="1435" y="42"/>
      <point x="1398" y="43" type="curve" smooth="yes"/>
      <point x="1393" y="43"/>
      <point x="1388" y="44"/>
      <point x="1383" y="44" type="curve" smooth="yes"/>
      <point x="1310" y="44"/>
      <point x="1285" y="29"/>
      <point x="1252" y="22" type="curve" smooth="yes"/>
      <point x="1219" y="14"/>
      <point x="1112" y="23"/>
      <point x="1076" y="6" type="curve" smooth="yes"/>
      <point x="1066" y="2"/>
      <point x="1061" y="0"/>
      <point x="1056" y="0" type="curve" smooth="yes"/>
      <point x="1046" y="0"/>
      <point x="1039" y="5"/>
      <point x="1013" y="5" type="curve" smooth="yes"/>
      <point x="978" y="5"/>
      <point x="931" y="1"/>
      <point x="909" y="-9" type="curve" smooth="yes"/>
      <point x="903" y="-11"/>
      <point x="892" y="-12"/>
      <point x="879" y="-12" type="curve" smooth="yes"/>
      <point x="861" y="-12"/>
      <point x="838" y="-10"/>
      <point x="815" y="-8" type="curve" smooth="yes"/>
      <point x="810" y="-7"/>
      <point x="805" y="-7"/>
      <point x="800" y="-7" type="curve" smooth="yes"/>
      <point x="764" y="-7"/>
      <point x="729" y="-20"/>
      <point x="705" y="-27" type="curve" smooth="yes"/>
      <point x="699" y="-29"/>
      <point x="694" y="-29"/>
      <point x="688" y="-29" type="curve" smooth="yes"/>
      <point x="678" y="-29"/>
      <point x="666" y="-27"/>
      <point x="646" y="-27" type="curve" smooth="yes"/>
      <point x="633" y="-27"/>
      <point x="616" y="-28"/>
      <point x="595" y="-31" type="curve" smooth="yes"/>
      <point x="532" y="-39"/>
      <point x="492" y="-37"/>
      <point x="492" y="-64" type="curve" smooth="yes"/>
      <point x="492" y="-94"/>
      <point x="579" y="-86"/>
      <point x="598" y="-89" type="curve" smooth="yes"/>
      <point x="628" y="-94"/>
      <point x="664" y="-91"/>
      <point x="710" y="-98" type="curve" smooth="yes"/>
      <point x="735" y="-101"/>
      <point x="767" y="-102"/>
      <point x="796" y="-102" type="curve" smooth="yes"/>
      <point x="811" y="-102"/>
      <point x="825" y="-102"/>
      <point x="836" y="-102" type="curve" smooth="yes"/>
      <point x="846" y="-102"/>
      <point x="854" y="-102"/>
      <point x="860" y="-102" type="curve" smooth="yes"/>
      <point x="941" y="-106"/>
      <point x="1032" y="-106"/>
      <point x="1055" y="-108" type="curve" smooth="yes"/>
      <point x="1080" y="-110"/>
      <point x="1164" y="-117"/>
      <point x="1184" y="-117" type="curve" smooth="yes"/>
      <point x="1200" y="-117"/>
      <point x="1244" y="-120"/>
      <point x="1253" y="-124" type="curve"/>
      <point x="1250" y="-129"/>
      <point x="1230" y="-139"/>
      <point x="1230" y="-155" type="curve" smooth="yes"/>
      <point x="1230" y="-158"/>
      <point x="1230" y="-160"/>
      <point x="1231" y="-163" type="curve" smooth="yes"/>
      <point x="1236" y="-175"/>
      <point x="1269" y="-179"/>
      <point x="1300" y="-179" type="curve" smooth="yes"/>
      <point x="1320" y="-179"/>
      <point x="1339" y="-177"/>
      <point x="1350" y="-176" type="curve" smooth="yes"/>
      <point x="1353" y="-176"/>
      <point x="1356" y="-175"/>
      <point x="1359" y="-175" type="curve" smooth="yes"/>
      <point x="1380" y="-175"/>
      <point x="1395" y="-186"/>
      <point x="1423" y="-193" type="curve" smooth="yes"/>
      <point x="1453" y="-200"/>
      <point x="1536" y="-206"/>
      <point x="1571" y="-208" type="curve" smooth="yes"/>
      <point x="1601" y="-210"/>
      <point x="1620" y="-225"/>
      <point x="1690" y="-225" type="curve" smooth="yes"/>
      <point x="1761" y="-225"/>
      <point x="1853" y="-240"/>
      <point x="1855" y="-251" type="curve" smooth="yes"/>
      <point x="1855" y="-252"/>
      <point x="1855" y="-252"/>
      <point x="1855" y="-252" type="curve" smooth="yes"/>
      <point x="1855" y="-263"/>
      <point x="1826" y="-266"/>
      <point x="1800" y="-268" type="curve" smooth="yes"/>
      <point x="1798" y="-268"/>
      <point x="1794" y="-268"/>
      <point x="1789" y="-268" type="curve" smooth="yes"/>
      <point x="1783" y="-268"/>
      <point x="1776" y="-268"/>
      <point x="1769" y="-268" type="curve" smooth="yes"/>
      <point x="1747" y="-268"/>
      <point x="1722" y="-269"/>
      <point x="1711" y="-279" type="curve" smooth="yes"/>
      <point x="1702" y="-286"/>
      <point x="1682" y="-285"/>
      <point x="1648" y="-289" type="curve" smooth="yes"/>
      <point x="1616" y="-294"/>
      <point x="1585" y="-302"/>
      <point x="1538" y="-311" type="curve" smooth="yes"/>
      <point x="1490" y="-319"/>
      <point x="1484" y="-331"/>
      <point x="1460" y="-338" type="curve" smooth="yes"/>
      <point x="1451" y="-341"/>
      <point x="1440" y="-341"/>
      <point x="1425" y="-341" type="curve" smooth="yes"/>
      <point x="1409" y="-341"/>
      <point x="1389" y="-341"/>
      <point x="1366" y="-341" type="curve" smooth="yes"/>
      <point x="1351" y="-341"/>
      <point x="1336" y="-341"/>
      <point x="1319" y="-342" type="curve" smooth="yes"/>
      <point x="1299" y="-344"/>
      <point x="1288" y="-354"/>
      <point x="1288" y="-365" type="curve" smooth="yes"/>
      <point x="1288" y="-375"/>
      <point x="1299" y="-386"/>
      <point x="1322" y="-388" type="curve" smooth="yes"/>
      <point x="1322" y="-388"/>
      <point x="1323" y="-388"/>
      <point x="1323" y="-388" type="curve"/>
      <point x="1323" y="-388"/>
      <point x="1447" y="-392"/>
      <point x="1476" y="-398" type="curve" smooth="yes"/>
      <point x="1496" y="-402"/>
      <point x="1497" y="-404"/>
      <point x="1515" y="-404" type="curve" smooth="yes"/>
      <point x="1524" y="-404"/>
      <point x="1537" y="-403"/>
      <point x="1560" y="-403" type="curve" smooth="yes"/>
      <point x="1565" y="-402"/>
      <point x="1569" y="-402"/>
      <point x="1574" y="-402" type="curve" smooth="yes"/>
      <point x="1628" y="-402"/>
      <point x="1640" y="-414"/>
      <point x="1705" y="-430" type="curve" smooth="yes"/>
      <point x="1746" y="-440"/>
      <point x="1789" y="-441"/>
      <point x="1826" y="-441" type="curve" smooth="yes"/>
      <point x="1834" y="-441"/>
      <point x="1842" y="-441"/>
      <point x="1849" y="-441" type="curve" smooth="yes"/>
      <point x="1866" y="-441"/>
      <point x="1882" y="-441"/>
      <point x="1893" y="-443" type="curve" smooth="yes"/>
      <point x="1932" y="-449"/>
      <point x="2010" y="-468"/>
      <point x="2051" y="-474" type="curve" smooth="yes"/>
      <point x="2094" y="-481"/>
      <point x="2239" y="-481"/>
      <point x="2239" y="-481" type="curve" smooth="yes"/>
      <point x="2244" y="-481"/>
      <point x="2248" y="-478"/>
    </contour>
  </outline>
</glyph>
<glyph name="uniE0CD" format="2">
  <advance width="1200"/>
  <unicode hex="E0CD"/>
  <note>
uniE0CD
</note>
  <outline>
    <contour>
      <point x="1397" y="1431" type="line"/>
      <point x="1692" y="921" type="line"/>
      <point x="1397" y="410" type="line"/>
      <point x="808" y="410" type="line"/>
      <point x="514" y="921" type="line"/>
      <point x="808" y="1431" type="line"/>
    </contour>
    <contour>
      <point x="1429" y="356" type="line"/>
      <point x="1755" y="921" type="line"/>
      <point x="1429" y="1486" type="line"/>
      <point x="777" y="1486" type="line"/>
      <point x="451" y="921" type="line"/>
      <point x="777" y="356" type="line"/>
    </contour>
    <contour>
      <point x="77" y="662" type="line"/>
      <point x="372" y="152" type="line"/>
      <point x="77" y="-358" type="line"/>
      <point x="-500" y="-358" type="line"/>
      <point x="-500" y="662" type="line"/>
    </contour>
    <contour>
      <point x="109" y="-413" type="line"/>
      <point x="435" y="152" type="line"/>
      <point x="109" y="717" type="line"/>
      <point x="-555" y="717" type="line"/>
      <point x="-555" y="-413" type="line"/>
    </contour>
    <contour>
      <point x="77" y="2238" type="line"/>
      <point x="372" y="1728" type="line"/>
      <point x="77" y="1218" type="line"/>
      <point x="-500" y="1218" type="line"/>
      <point x="-500" y="2238" type="line"/>
    </contour>
    <contour>
      <point x="109" y="1163" type="line"/>
      <point x="435" y="1728" type="line"/>
      <point x="109" y="2293" type="line"/>
      <point x="-555" y="2293" type="line"/>
      <point x="-555" y="1163" type="line"/>
    </contour>
  </outline>
</glyph>
<glyph name="uniE0CE" format="2">
  <advance width="1200"/>
  <unicode hex="E0CE"/>
  <note>
uniE0CE
</note>
  <outline>
    <contour>
      <point x="2025" y="940" type="curve" smooth="yes"/>
      <point x="2025" y="940" type="line" smooth="yes"/>
      <point x="2025" y="1144"/>
      <point x="1952" y="1310"/>
      <point x="1861" y="1310" type="curve" smooth="yes"/>
      <point x="1844" y="1310"/>
      <point x="1828" y="1304"/>
      <point x="1812" y="1293" type="curve"/>
      <point x="1812" y="1294" type="line"/>
      <point x="1641" y="1085"/>
      <point x="1690" y="676"/>
      <point x="1828" y="580" type="curve"/>
      <point x="1821" y="580" type="line"/>
      <point x="1834" y="573"/>
      <point x="1848" y="569"/>
      <point x="1861" y="569" type="curve"/>
      <point x="1863" y="569" type="line"/>
      <point x="1953" y="572"/>
      <point x="2025" y="737"/>
    </contour>
    <contour>
      <point x="1676" y="352" type="curve"/>
      <point x="1806" y="581" type="line"/>
      <point x="1635" y="586" type="line"/>
      <point x="1477" y="718"/>
      <point x="1447" y="1131"/>
      <point x="1638" y="1315" type="curve"/>
      <point x="1802" y="1310" type="line"/>
      <point x="1674" y="1530" type="line"/>
      <point x="1675" y="1549"/>
      <point x="1676" y="1570"/>
      <point x="1676" y="1590" type="curve" smooth="yes"/>
      <point x="1676" y="1795"/>
      <point x="1603" y="1961"/>
      <point x="1513" y="1961" type="curve" smooth="yes"/>
      <point x="1491" y="1961"/>
      <point x="1471" y="1950"/>
      <point x="1452" y="1933" type="curve"/>
      <point x="1290" y="1721"/>
      <point x="1339" y="1324"/>
      <point x="1475" y="1229" type="curve"/>
      <point x="1283" y="1234" type="line"/>
      <point x="1124" y="1367"/>
      <point x="1095" y="1779"/>
      <point x="1285" y="1963" type="curve"/>
      <point x="1421" y="1960" type="line"/>
      <point x="1255" y="2244" type="line"/>
      <point x="500" y="928" type="line"/>
      <point x="1259" y="-386" type="line"/>
      <point x="1431" y="-83" type="line"/>
      <point x="1290" y="-79" type="line"/>
      <point x="1132" y="53"/>
      <point x="1102" y="466"/>
      <point x="1293" y="650" type="curve"/>
      <point x="1480" y="644" type="line"/>
      <point x="1295" y="442"/>
      <point x="1340" y="20"/>
      <point x="1480" y="-82" type="curve" smooth="yes"/>
      <point x="1480" y="-83"/>
      <point x="1481" y="-83"/>
      <point x="1481" y="-83" type="curve" smooth="yes"/>
      <point x="1492" y="-89"/>
      <point x="1504" y="-92"/>
      <point x="1516" y="-92" type="curve"/>
      <point x="1518" y="-92" type="line"/>
      <point x="1608" y="-90"/>
      <point x="1680" y="75"/>
      <point x="1680" y="278" type="curve" smooth="yes"/>
      <point x="1680" y="303"/>
      <point x="1678" y="328"/>
    </contour>
    <contour>
      <point x="1101" y="564" type="curve"/>
      <point x="908" y="569" type="line"/>
      <point x="750" y="702"/>
      <point x="720" y="1114"/>
      <point x="911" y="1298" type="curve"/>
      <point x="1098" y="1293" type="line"/>
      <point x="912" y="1090"/>
      <point x="959" y="662"/>
    </contour>
    <contour>
      <point x="289" y="1060" type="line"/>
      <point x="1016" y="2284" type="line"/>
      <point x="-124" y="2292" type="line"/>
      <point x="-815" y="1060" type="line"/>
    </contour>
    <contour>
      <point x="-135" y="-414" type="line"/>
      <point x="1042" y="-414" type="line"/>
      <point x="279" y="817" type="line"/>
      <point x="-825" y="817" type="line"/>
    </contour>
  </outline>
</glyph>
<glyph name="uniE0D0" format="2">
  <advance width="1200"/>
  <unicode hex="E0D0"/>
  <note>
uniE0D0
</note>
  <outline>
    <contour>
      <point x="20" y="279" type="curve" smooth="yes"/>
      <point x="20" y="279" type="line" smooth="yes"/>
      <point x="20" y="213"/>
      <point x="47" y="153"/>
      <point x="90" y="110" type="curve" smooth="yes"/>
      <point x="138" y="62" type="line" smooth="yes"/>
      <point x="181" y="19"/>
      <point x="241" y="-8"/>
      <point x="307" y="-8" type="curve" smooth="yes"/>
      <point x="439" y="-8"/>
      <point x="547" y="99"/>
      <point x="547" y="232" type="curve" smooth="yes"/>
      <point x="547" y="298"/>
      <point x="520" y="358"/>
      <point x="476" y="401" type="curve" smooth="yes"/>
      <point x="429" y="448" type="line" smooth="yes"/>
      <point x="386" y="492"/>
      <point x="326" y="519"/>
      <point x="260" y="519" type="curve" smooth="yes"/>
      <point x="127" y="519"/>
      <point x="20" y="411"/>
    </contour>
    <contour>
      <point x="653" y="279" type="curve" smooth="yes"/>
      <point x="653" y="213"/>
      <point x="680" y="153"/>
      <point x="724" y="110" type="curve" smooth="yes"/>
      <point x="771" y="62" type="line" smooth="yes"/>
      <point x="814" y="19"/>
      <point x="874" y="-8"/>
      <point x="940" y="-8" type="curve" smooth="yes"/>
      <point x="1073" y="-8"/>
      <point x="1180" y="99"/>
      <point x="1180" y="232" type="curve" smooth="yes"/>
      <point x="1180" y="298"/>
      <point x="1153" y="358"/>
      <point x="1110" y="401" type="curve" smooth="yes"/>
      <point x="1062" y="448" type="line" smooth="yes"/>
      <point x="1019" y="492"/>
      <point x="959" y="519"/>
      <point x="893" y="519" type="curve" smooth="yes"/>
      <point x="761" y="519"/>
      <point x="653" y="411"/>
    </contour>
    <contour>
      <point x="20" y="998" type="curve" smooth="yes"/>
      <point x="20" y="932"/>
      <point x="47" y="872"/>
      <point x="90" y="829" type="curve" smooth="yes"/>
      <point x="138" y="781" type="line" smooth="yes"/>
      <point x="181" y="738"/>
      <point x="241" y="711"/>
      <point x="307" y="711" type="curve" smooth="yes"/>
      <point x="439" y="711"/>
      <point x="547" y="818"/>
      <point x="547" y="951" type="curve" smooth="yes"/>
      <point x="547" y="1017"/>
      <point x="520" y="1077"/>
      <point x="476" y="1120" type="curve" smooth="yes"/>
      <point x="429" y="1167" type="line" smooth="yes"/>
      <point x="386" y="1211"/>
      <point x="326" y="1238"/>
      <point x="260" y="1238" type="curve" smooth="yes"/>
      <point x="127" y="1238"/>
      <point x="20" y="1130"/>
    </contour>
    <contour>
      <point x="653" y="998" type="curve" smooth="yes"/>
      <point x="653" y="932"/>
      <point x="680" y="872"/>
      <point x="724" y="829" type="curve" smooth="yes"/>
      <point x="771" y="781" type="line" smooth="yes"/>
      <point x="814" y="738"/>
      <point x="874" y="711"/>
      <point x="940" y="711" type="curve" smooth="yes"/>
      <point x="1073" y="711"/>
      <point x="1180" y="818"/>
      <point x="1180" y="951" type="curve" smooth="yes"/>
      <point x="1180" y="1017"/>
      <point x="1153" y="1077"/>
      <point x="1110" y="1120" type="curve" smooth="yes"/>
      <point x="1062" y="1167" type="line" smooth="yes"/>
      <point x="1019" y="1211"/>
      <point x="959" y="1238"/>
      <point x="893" y="1238" type="curve" smooth="yes"/>
      <point x="761" y="1238"/>
      <point x="653" y="1130"/>
    </contour>
    <contour>
      <point x="403" y="440" type="curve"/>
      <point x="400" y="444" type="line" smooth="yes"/>
      <point x="400" y="444"/>
      <point x="399" y="444"/>
      <point x="399" y="444" type="curve" smooth="yes"/>
      <point x="401" y="443"/>
      <point x="403" y="441"/>
      <point x="404" y="440" type="curve"/>
      <point x="404" y="440"/>
      <point x="404" y="440"/>
    </contour>
    <contour>
      <point x="1036" y="440" type="curve"/>
      <point x="1033" y="444" type="line" smooth="yes"/>
      <point x="1033" y="444"/>
      <point x="1033" y="444"/>
      <point x="1033" y="444" type="curve" smooth="yes"/>
      <point x="1034" y="443"/>
      <point x="1036" y="441"/>
      <point x="1038" y="440" type="curve"/>
      <point x="1037" y="440"/>
      <point x="1037" y="440"/>
    </contour>
    <contour>
      <point x="403" y="1159" type="curve"/>
      <point x="400" y="1163" type="line" smooth="yes"/>
      <point x="400" y="1163"/>
      <point x="399" y="1163"/>
      <point x="399" y="1163" type="curve" smooth="yes"/>
      <point x="401" y="1162"/>
      <point x="403" y="1160"/>
      <point x="404" y="1159" type="curve"/>
      <point x="404" y="1159"/>
      <point x="404" y="1159"/>
    </contour>
    <contour>
      <point x="1036" y="1159" type="curve"/>
      <point x="1033" y="1163" type="line" smooth="yes"/>
      <point x="1033" y="1163"/>
      <point x="1033" y="1163"/>
      <point x="1032" y="1163" type="curve" smooth="yes"/>
      <point x="1034" y="1162"/>
      <point x="1036" y="1160"/>
      <point x="1038" y="1159" type="curve"/>
      <point x="1037" y="1159"/>
      <point x="1037" y="1159"/>
    </contour>
    <contour>
      <point x="890" y="758" type="curve"/>
      <point x="924" y="725" type="line"/>
      <point x="872" y="729"/>
      <point x="826" y="749"/>
      <point x="790" y="782" type="curve"/>
      <point x="820" y="767"/>
      <point x="854" y="759"/>
    </contour>
    <contour>
      <point x="943" y="724" type="curve" smooth="yes"/>
      <point x="943" y="724" type="line"/>
      <point x="909" y="759" type="line"/>
      <point x="1028" y="767"/>
      <point x="1124" y="862"/>
      <point x="1132" y="982" type="curve"/>
      <point x="1167" y="948" type="line"/>
      <point x="1165" y="825"/>
      <point x="1066" y="726"/>
    </contour>
    <contour>
      <point x="1166" y="967" type="curve"/>
      <point x="1133" y="1001" type="line"/>
      <point x="1132" y="1037"/>
      <point x="1124" y="1071"/>
      <point x="1109" y="1101" type="curve"/>
      <point x="1142" y="1065"/>
      <point x="1162" y="1019"/>
    </contour>
    <contour>
      <point x="257" y="758" type="curve"/>
      <point x="290" y="725" type="line"/>
      <point x="239" y="729"/>
      <point x="193" y="749"/>
      <point x="157" y="782" type="curve"/>
      <point x="187" y="767"/>
      <point x="221" y="759"/>
    </contour>
    <contour>
      <point x="310" y="724" type="curve" smooth="yes"/>
      <point x="310" y="724" type="line"/>
      <point x="275" y="759" type="line"/>
      <point x="395" y="767"/>
      <point x="491" y="862"/>
      <point x="499" y="982" type="curve"/>
      <point x="533" y="948" type="line"/>
      <point x="532" y="825"/>
      <point x="433" y="726"/>
    </contour>
    <contour>
      <point x="533" y="967" type="curve"/>
      <point x="499" y="1001" type="line"/>
      <point x="499" y="1037"/>
      <point x="491" y="1071"/>
      <point x="476" y="1101" type="curve"/>
      <point x="508" y="1065"/>
      <point x="529" y="1019"/>
    </contour>
    <contour>
      <point x="890" y="39" type="curve"/>
      <point x="924" y="6" type="line"/>
      <point x="872" y="10"/>
      <point x="826" y="30"/>
      <point x="790" y="63" type="curve"/>
      <point x="820" y="48"/>
      <point x="854" y="40"/>
    </contour>
    <contour>
      <point x="943" y="5" type="curve"/>
      <point x="909" y="40" type="line"/>
      <point x="1029" y="48"/>
      <point x="1124" y="143"/>
      <point x="1132" y="263" type="curve"/>
      <point x="1167" y="229" type="line"/>
      <point x="1165" y="106"/>
      <point x="1066" y="7"/>
    </contour>
    <contour>
      <point x="1166" y="248" type="curve"/>
      <point x="1133" y="282" type="line"/>
      <point x="1132" y="318"/>
      <point x="1124" y="352"/>
      <point x="1109" y="382" type="curve"/>
      <point x="1142" y="346"/>
      <point x="1162" y="299"/>
    </contour>
    <contour>
      <point x="257" y="39" type="curve"/>
      <point x="290" y="6" type="line"/>
      <point x="239" y="10"/>
      <point x="193" y="30"/>
      <point x="157" y="63" type="curve"/>
      <point x="187" y="48"/>
      <point x="221" y="40"/>
    </contour>
    <contour>
      <point x="310" y="5" type="curve"/>
      <point x="275" y="40" type="line"/>
      <point x="395" y="48"/>
      <point x="491" y="143"/>
      <point x="499" y="263" type="curve"/>
      <point x="533" y="229" type="line"/>
      <point x="532" y="106"/>
      <point x="432" y="7"/>
    </contour>
    <contour>
      <point x="533" y="248" type="curve"/>
      <point x="499" y="282" type="line"/>
      <point x="499" y="318"/>
      <point x="491" y="352"/>
      <point x="476" y="382" type="curve"/>
      <point x="508" y="346"/>
      <point x="529" y="300"/>
    </contour>
    <contour>
      <point x="390" y="434" type="curve" smooth="yes"/>
      <point x="428" y="396"/>
      <point x="456" y="342"/>
      <point x="456" y="279" type="curve" smooth="yes"/>
      <point x="456" y="151"/>
      <point x="344" y="63"/>
      <point x="260" y="63" type="curve" smooth="yes"/>
      <point x="218" y="63"/>
      <point x="168" y="85"/>
      <point x="129" y="124" type="curve" smooth="yes"/>
      <point x="91" y="162"/>
      <point x="64" y="216"/>
      <point x="64" y="279" type="curve" smooth="yes"/>
      <point x="64" y="407"/>
      <point x="176" y="495"/>
      <point x="260" y="495" type="curve" smooth="yes"/>
      <point x="302" y="495"/>
      <point x="351" y="473"/>
    </contour>
    <contour>
      <point x="50" y="275" type="curve"/>
      <point x="43" y="282" type="line"/>
      <point x="44" y="346"/>
      <point x="73" y="404"/>
      <point x="119" y="443" type="curve"/>
      <point x="79" y="403"/>
      <point x="50" y="346"/>
      <point x="50" y="279" type="curve" smooth="yes"/>
      <point x="50" y="278"/>
      <point x="50" y="276"/>
    </contour>
    <contour>
      <point x="44" y="262" type="curve"/>
      <point x="51" y="255" type="line"/>
      <point x="56" y="212"/>
      <point x="72" y="174"/>
      <point x="95" y="143" type="curve"/>
      <point x="96" y="140"/>
      <point x="98" y="137"/>
      <point x="99" y="134" type="curve"/>
      <point x="68" y="169"/>
      <point x="48" y="213"/>
    </contour>
    <contour>
      <point x="469" y="263" type="curve"/>
      <point x="475" y="257" type="line"/>
      <point x="469" y="200"/>
      <point x="441" y="150"/>
      <point x="400" y="115" type="curve"/>
      <point x="437" y="152"/>
      <point x="465" y="203"/>
    </contour>
    <contour>
      <point x="476" y="275" type="curve"/>
      <point x="469" y="282" type="line"/>
      <point x="469" y="316"/>
      <point x="461" y="348"/>
      <point x="447" y="377" type="curve"/>
      <point x="452" y="372"/>
      <point x="456" y="367"/>
      <point x="460" y="361" type="curve"/>
      <point x="470" y="336"/>
      <point x="476" y="308"/>
      <point x="476" y="279" type="curve" smooth="yes"/>
      <point x="476" y="278"/>
      <point x="476" y="276"/>
    </contour>
    <contour>
      <point x="1024" y="434" type="curve" smooth="yes"/>
      <point x="1062" y="396"/>
      <point x="1089" y="342"/>
      <point x="1089" y="279" type="curve" smooth="yes"/>
      <point x="1089" y="151"/>
      <point x="977" y="63"/>
      <point x="893" y="63" type="curve" smooth="yes"/>
      <point x="851" y="63"/>
      <point x="801" y="85"/>
      <point x="762" y="124" type="curve" smooth="yes"/>
      <point x="724" y="162"/>
      <point x="697" y="216"/>
      <point x="697" y="279" type="curve" smooth="yes"/>
      <point x="697" y="407"/>
      <point x="809" y="495"/>
      <point x="893" y="495" type="curve" smooth="yes"/>
      <point x="935" y="495"/>
      <point x="985" y="473"/>
    </contour>
    <contour>
      <point x="684" y="275" type="curve"/>
      <point x="677" y="282" type="line"/>
      <point x="678" y="346"/>
      <point x="707" y="404"/>
      <point x="752" y="443" type="curve"/>
      <point x="712" y="403"/>
      <point x="683" y="346"/>
      <point x="683" y="279" type="curve" smooth="yes"/>
      <point x="683" y="278"/>
      <point x="683" y="276"/>
    </contour>
    <contour>
      <point x="677" y="262" type="curve"/>
      <point x="685" y="255" type="line"/>
      <point x="689" y="212"/>
      <point x="706" y="174"/>
      <point x="729" y="143" type="curve"/>
      <point x="730" y="140"/>
      <point x="731" y="137"/>
      <point x="732" y="134" type="curve"/>
      <point x="701" y="169"/>
      <point x="681" y="213"/>
    </contour>
    <contour>
      <point x="1102" y="263" type="curve"/>
      <point x="1108" y="257" type="line"/>
      <point x="1102" y="200"/>
      <point x="1075" y="150"/>
      <point x="1034" y="115" type="curve"/>
      <point x="1071" y="152"/>
      <point x="1098" y="203"/>
    </contour>
    <contour>
      <point x="1109" y="275" type="curve"/>
      <point x="1103" y="282" type="line"/>
      <point x="1102" y="317"/>
      <point x="1094" y="348"/>
      <point x="1081" y="377" type="curve"/>
      <point x="1085" y="372"/>
      <point x="1089" y="367"/>
      <point x="1093" y="361" type="curve"/>
      <point x="1103" y="336"/>
      <point x="1109" y="308"/>
      <point x="1109" y="279" type="curve" smooth="yes"/>
      <point x="1109" y="278"/>
      <point x="1109" y="276"/>
    </contour>
    <contour>
      <point x="390" y="1153" type="curve" smooth="yes"/>
      <point x="428" y="1115"/>
      <point x="456" y="1061"/>
      <point x="456" y="998" type="curve" smooth="yes"/>
      <point x="456" y="870"/>
      <point x="344" y="782"/>
      <point x="260" y="782" type="curve" smooth="yes"/>
      <point x="218" y="782"/>
      <point x="168" y="804"/>
      <point x="129" y="843" type="curve" smooth="yes"/>
      <point x="91" y="881"/>
      <point x="64" y="935"/>
      <point x="64" y="998" type="curve" smooth="yes"/>
      <point x="64" y="1126"/>
      <point x="176" y="1214"/>
      <point x="260" y="1214" type="curve" smooth="yes"/>
      <point x="302" y="1214"/>
      <point x="352" y="1192"/>
    </contour>
    <contour>
      <point x="50" y="994" type="curve" smooth="yes"/>
      <point x="50" y="994" type="line"/>
      <point x="43" y="1001" type="line"/>
      <point x="44" y="1065"/>
      <point x="73" y="1123"/>
      <point x="119" y="1162" type="curve"/>
      <point x="79" y="1122"/>
      <point x="50" y="1065"/>
      <point x="50" y="998" type="curve" smooth="yes"/>
      <point x="50" y="997"/>
      <point x="50" y="995"/>
    </contour>
    <contour>
      <point x="44" y="981" type="curve"/>
      <point x="51" y="974" type="line"/>
      <point x="56" y="931"/>
      <point x="72" y="893"/>
      <point x="95" y="862" type="curve"/>
      <point x="96" y="859"/>
      <point x="98" y="856"/>
      <point x="99" y="853" type="curve"/>
      <point x="68" y="888"/>
      <point x="48" y="932"/>
    </contour>
    <contour>
      <point x="469" y="982" type="curve"/>
      <point x="475" y="976" type="line"/>
      <point x="469" y="919"/>
      <point x="441" y="869"/>
      <point x="400" y="834" type="curve"/>
      <point x="437" y="871"/>
      <point x="465" y="922"/>
    </contour>
    <contour>
      <point x="476" y="994" type="curve"/>
      <point x="469" y="1001" type="line"/>
      <point x="469" y="1035"/>
      <point x="461" y="1067"/>
      <point x="447" y="1096" type="curve"/>
      <point x="452" y="1091"/>
      <point x="456" y="1086"/>
      <point x="460" y="1080" type="curve"/>
      <point x="470" y="1055"/>
      <point x="476" y="1027"/>
      <point x="476" y="998" type="curve" smooth="yes"/>
      <point x="476" y="997"/>
      <point x="476" y="995"/>
    </contour>
    <contour>
      <point x="1024" y="1153" type="curve" smooth="yes"/>
      <point x="1062" y="1115"/>
      <point x="1089" y="1061"/>
      <point x="1089" y="998" type="curve" smooth="yes"/>
      <point x="1089" y="870"/>
      <point x="977" y="782"/>
      <point x="893" y="782" type="curve" smooth="yes"/>
      <point x="851" y="782"/>
      <point x="801" y="804"/>
      <point x="762" y="843" type="curve" smooth="yes"/>
      <point x="724" y="881"/>
      <point x="697" y="935"/>
      <point x="697" y="998" type="curve" smooth="yes"/>
      <point x="697" y="1126"/>
      <point x="809" y="1214"/>
      <point x="893" y="1214" type="curve" smooth="yes"/>
      <point x="935" y="1214"/>
      <point x="985" y="1192"/>
    </contour>
    <contour>
      <point x="684" y="994" type="curve"/>
      <point x="677" y="1001" type="line"/>
      <point x="678" y="1065"/>
      <point x="707" y="1123"/>
      <point x="753" y="1162" type="curve"/>
      <point x="712" y="1122"/>
      <point x="683" y="1065"/>
      <point x="683" y="998" type="curve" smooth="yes"/>
      <point x="683" y="997"/>
      <point x="683" y="995"/>
    </contour>
    <contour>
      <point x="677" y="981" type="curve"/>
      <point x="685" y="974" type="line"/>
      <point x="689" y="931"/>
      <point x="706" y="893"/>
      <point x="729" y="862" type="curve"/>
      <point x="730" y="859"/>
      <point x="731" y="856"/>
      <point x="732" y="853" type="curve"/>
      <point x="701" y="888"/>
      <point x="681" y="932"/>
    </contour>
    <contour>
      <point x="1102" y="982" type="curve"/>
      <point x="1108" y="976" type="line"/>
      <point x="1102" y="919"/>
      <point x="1075" y="869"/>
      <point x="1034" y="834" type="curve"/>
      <point x="1071" y="871"/>
      <point x="1098" y="922"/>
    </contour>
    <contour>
      <point x="1109" y="994" type="curve"/>
      <point x="1103" y="1001" type="line"/>
      <point x="1102" y="1036"/>
      <point x="1094" y="1067"/>
      <point x="1081" y="1096" type="curve"/>
      <point x="1085" y="1091"/>
      <point x="1089" y="1086"/>
      <point x="1093" y="1080" type="curve"/>
      <point x="1103" y="1055"/>
      <point x="1109" y="1027"/>
      <point x="1109" y="998" type="curve" smooth="yes"/>
      <point x="1109" y="997"/>
      <point x="1109" y="995"/>
    </contour>
  </outline>
</glyph>
<glyph name="uniE0D1" format="2">
  <advance width="1200"/>
  <unicode hex="E0D1"/>
  <note>
uniE0D1
</note>
  <outline>
    <contour>
      <point x="1517" y="1738" type="line"/>
      <point x="1127" y="1738" type="line"/>
      <point x="1127" y="1882" type="line"/>
      <point x="1517" y="1882" type="line"/>
    </contour>
    <contour>
      <point x="1544" y="1978" type="curve" smooth="yes"/>
      <point x="1116" y="1978" type="line" smooth="yes"/>
      <point x="1093" y="1978"/>
      <point x="1062" y="1957"/>
      <point x="1062" y="1924" type="curve" smooth="yes"/>
      <point x="1062" y="1239" type="line" smooth="yes"/>
      <point x="1062" y="1216"/>
      <point x="1083" y="1185"/>
      <point x="1116" y="1185" type="curve" smooth="yes"/>
      <point x="1544" y="1185" type="line" smooth="yes"/>
      <point x="1567" y="1185"/>
      <point x="1598" y="1206"/>
      <point x="1598" y="1239" type="curve" smooth="yes"/>
      <point x="1598" y="1924" type="line" smooth="yes"/>
      <point x="1598" y="1947"/>
      <point x="1577" y="1978"/>
    </contour>
    <contour>
      <point x="1517" y="493" type="line"/>
      <point x="1127" y="493" type="line"/>
      <point x="1127" y="637" type="line"/>
      <point x="1517" y="637" type="line"/>
    </contour>
    <contour>
      <point x="1062" y="692" type="curve" smooth="yes"/>
      <point x="1062" y="14" type="line" smooth="yes"/>
      <point x="1062" y="-10"/>
      <point x="1083" y="-41"/>
      <point x="1116" y="-41" type="curve" smooth="yes"/>
      <point x="1539" y="-41" type="line" smooth="yes"/>
      <point x="1563" y="-41"/>
      <point x="1594" y="-19"/>
      <point x="1594" y="14" type="curve" smooth="yes"/>
      <point x="1594" y="692" type="line" smooth="yes"/>
      <point x="1594" y="715"/>
      <point x="1572" y="746"/>
      <point x="1539" y="746" type="curve" smooth="yes"/>
      <point x="1116" y="746" type="line" smooth="yes"/>
      <point x="1093" y="746"/>
      <point x="1062" y="725"/>
    </contour>
    <contour>
      <point x="-398" y="2273" type="line"/>
      <point x="-398" y="-433" type="line"/>
      <point x="1121" y="-433" type="line"/>
      <point x="1121" y="2273" type="line"/>
    </contour>
  </outline>
</glyph>
<glyph name="uniE0D2" format="2">
  <advance width="1200"/>
  <unicode hex="E0D2"/>
  <note>
uniE0D2
</note>
  <outline>
    <contour>
      <point x="399" y="1060" type="line"/>
      <point x="1126" y="2284" type="line"/>
      <point x="48" y="2292" type="line"/>
      <point x="48" y="1060" type="line"/>
    </contour>
    <contour>
      <point x="48" y="-414" type="line"/>
      <point x="1152" y="-414" type="line"/>
      <point x="389" y="817" type="line"/>
      <point x="48" y="817" type="line"/>
    </contour>
  </outline>
</glyph>
<glyph name="uniE0D4" format="2">
  <advance width="1200"/>
  <unicode hex="E0D4"/>
  <note>
uniE0D4
</note>
  <outline>
    <contour>
      <point x="801" y="1060" type="line"/>
      <point x="1152" y="1060" type="line"/>
      <point x="1152" y="2292" type="line"/>
      <point x="74" y="2284" type="line"/>
    </contour>
    <contour>
      <point x="1152" y="-414" type="line"/>
      <point x="1152" y="817" type="line"/>
      <point x="811" y="817" type="line"/>
      <point x="48" y="-414" type="line"/>
    </contour>
  </outline>
</glyph>
